<?xml version="1.0" standalone="no"?>
<!DOCTYPE svg PUBLIC "-//W3C//DTD SVG 1.1//EN" "http://www.w3.org/Graphics/SVG/1.1/DTD/svg11.dtd" >
<svg xmlns="http://www.w3.org/2000/svg">
<metadata>
This is a custom SVG webfont generated by Font Squirrel.
Copyright   :  1990 1992 1996 2000 2001 Adobe Systems Incorporated All rights reserved
Designer    : Carol Twombly
Foundry     : Adobe Systems Incorporated
Foundry URL : httpwwwadobecomtype
</metadata>
<defs>
<font id="AdobeCaslonProBoldItalic" horiz-adv-x="1024" >
<font-face units-per-em="2048" ascent="1505" descent="-543" />
<missing-glyph horiz-adv-x="409" />
<glyph unicode=" "  horiz-adv-x="409" />
<glyph unicode="&#x09;" horiz-adv-x="409" />
<glyph unicode="&#xa0;" horiz-adv-x="409" />
<glyph unicode="!" horiz-adv-x="546" d="M51 113q0 59 38 99t95 40q55 0 90 -41t35 -88q0 -61 -38 -102t-101 -41q-37 0 -78 33.5t-41 99.5zM231 438q12 51 86 448.5t76 407.5q25 109 164 109q63 0 96 -26.5t33 -63.5t-29 -107q-4 -8 -60 -132l-121 -265l-122 -267q-57 -126 -59 -130q-8 -16 -39 -17 q-35 0 -25 43z" />
<glyph unicode="&#x22;" horiz-adv-x="471" d="M190 918q12 49 40 223t38 202q20 59 121 60q82 0 82 -70q0 -18 -34 -83l-92 -170q-58 -105 -93 -179zM487 918q10 47 40 221t38 204q20 59 121 60q82 0 82 -68q0 -16 -36 -85l-95 -176q-59 -108 -90 -173z" />
<glyph unicode="#" d="M92 395l37 109q8 23 14.5 29t18.5 6h164l75 237h-168q-37 0 -26 29l35 117q8 23 30 22h177l114 359q6 18 23 18h108q18 0 13 -18l-115 -359h158l112 350q8 27 27 27h102q23 0 15 -27l-113 -350h172q27 0 16 -29l-39 -112q-10 -27 -36 -27h-154l-76 -237h185q29 0 18 -31 l-41 -119q-8 -18 -41 -18h-174l-123 -379q-6 -23 -18 -23h-123q-10 0 -4 21l125 381h-160l-121 -371q-10 -31 -20 -31h-119q-14 0 -6 27l122 375h-163q-27 -1 -21 24zM469 539h164l78 237h-166z" />
<glyph unicode="$" d="M68 137l129 365q6 18 18 14l29 -8q14 -8 10 -23q-45 -184 92 -292l113 428q-84 76 -129 153.5t-45 183.5q0 96 85 186.5t242 100.5l41 162q4 16 17 14l45 -6q10 -4 4 -24l-37 -144q49 -2 86 -12l39 162q4 14 18 12l37 -6q16 -2 10 -25l-41 -161q23 -8 48.5 -22.5 t35.5 -14.5q16 0 27 39q6 16 14 16l27 -6q8 -4 6 -19l-51 -317q-4 -18 -14 -19l-33 7q-12 0 -12 18q0 145 -70 205l-100 -395q80 -59 122.5 -131t42.5 -181q0 -141 -89 -230t-232 -108l-47 -196q-2 -12 -7 -17.5t-12 -3.5l-43 13q-12 2 -6 28l43 170q-45 0 -92 10l-51 -206 q-4 -16 -16 -13l-43 11q-12 2 -7 26l52 203q-59 25 -113 66q-29 23 -47 22q-20 0 -51 -53q-12 -18 -23 -10l-18 10q-10 4 -4 18zM408 154q41 -18 88 -23l96 371l-76 69zM459 1006q0 -76 61 -132l76 289q-66 -12 -101.5 -57t-35.5 -100zM569 143q59 14 99.5 57.5t40.5 110.5 q0 63 -62 131zM575 819l76 -61l101 391q-33 18 -84 22z" />
<glyph unicode="%" horiz-adv-x="1536" d="M123 752q0 127 50 255t154.5 221t239.5 93q113 0 165 -58.5t52 -154.5q0 -221 -121.5 -407.5t-314.5 -186.5q-119 0 -172 67t-53 171zM274 670q0 -39 16.5 -63.5t47.5 -24.5q88 0 191.5 240.5t103.5 342.5q0 45 -13.5 64.5t-50.5 21.5q-88 0 -191.5 -232t-103.5 -349z M352 27q0 10 10 24l828 1262q6 8 18 8q4 0 17 -6l53 -33q10 -4 10 -12q0 -12 -8 -23l-827 -1261q-10 -16 -21 -17q-4 0 -16 6l-54 37q-10 11 -10 15zM858 223q0 127 50 255t154.5 221.5t240.5 93.5q113 0 165 -58.5t52 -154.5q0 -221 -122 -407.5t-315 -186.5 q-119 0 -172 66.5t-53 170.5zM1010 141q0 -39 16 -63.5t47 -24.5q88 0 191.5 241t103.5 343q0 45 -13.5 64.5t-49.5 21.5q-88 0 -191.5 -232.5t-103.5 -349.5z" />
<glyph unicode="&#x26;" horiz-adv-x="1716" d="M154 483q0 162 82.5 271.5t171.5 148.5q-92 125 -93 244q0 121 88.5 208t235.5 87q104 0 168.5 -55.5t64.5 -159.5q0 -66 -38.5 -105t-71.5 -39q-12 0 -6 37q8 53 -33 92t-107 39q-61 0 -115.5 -50t-54.5 -136q0 -90 33 -135l28.5 10t49.5 14.5t55 6.5q106 0 107 -84 q0 -98 -101 -99q-57 0 -147 58q-18 25 -47 4q-45 -35 -73.5 -106.5t-28.5 -149.5q0 -188 150.5 -293t426.5 -105q268 0 421 111t153 270q0 100 -77 176t-212 76q-117 0 -163 -58.5t-46 -121.5q0 -37 24.5 -73t40.5 -36q8 0 14.5 9.5t4.5 21.5q-8 31 18.5 72t69.5 41 q127 0 127 -103q0 -133 -162 -133q-92 0 -158.5 65.5t-66.5 186.5q0 127 97 217t257 90q45 0 131 -7t156 -7q100 0 166.5 47t66.5 133q0 43 -37.5 85t-78.5 42q-33 0 -23 -45q10 -37 -15.5 -77t-80.5 -40q-47 0 -77 30t-30 73q0 59 49.5 99t112.5 40q129 0 199.5 -64.5 t70.5 -160.5q0 -154 -84 -244t-229 -113q-53 -10 -29 -51q53 -82 54 -225q0 -254 -198 -405.5t-497 -151.5q-164 0 -293 36t-205.5 90t-128 127t-69.5 140t-18 135z" />
<glyph unicode="'" horiz-adv-x="286" d="M254 918q10 43 39 219t39 206q20 59 121 60q82 0 82 -70q0 -18 -34 -83l-92 -170q-58 -105 -94 -179z" />
<glyph unicode="(" horiz-adv-x="614" d="M121 141q0 442 226 808t616 640q20 14 38 -14q10 -16 8.5 -24.5t-18.5 -24.5q-285 -256 -476 -645t-191 -824q0 -262 24 -485q2 -18 -29 -29q-31 -12 -38 6q-63 104 -111.5 273t-48.5 319z" />
<glyph unicode=")" horiz-adv-x="614" d="M-319.5 -416q2.5 8 18.5 25q285 256 476.5 645t191.5 823q0 262 -25 486q-2 18 29 28q31 12 39 -6q63 -104 111 -273t48 -319q0 -442 -226 -807.5t-615 -640.5q-20 -14 -39 15q-11 16 -8.5 24z" />
<glyph unicode="*" horiz-adv-x="614" d="M166 993.5q8 28.5 33 38.5q14 6 58 15.5t102.5 19.5t91.5 18v9q-31 6 -79 12t-80 11t-48 11q-25 8 -33 38t12 73q20 37 54 48t51 -7q14 -12 60 -73.5t77 -94.5l10 6l-18 82q-12 53 -19.5 89t-5.5 50q4 25 29.5 44.5t70.5 19.5q82 0 82 -51q0 -16 -21.5 -57.5t-53 -95.5 t-45.5 -83l6 -4q31 23 99.5 92.5t90.5 77.5q27 10 51.5 -2t34.5 -41q31 -94 -49 -115q-25 -6 -103.5 -14t-117.5 -14v-9q27 -8 108.5 -20t106.5 -27q29 -16 32 -44.5t-22 -59.5q-27 -35 -61.5 -42t-59.5 15q-18 16 -57 75.5t-55 80.5l-13 -2q2 -37 21.5 -124t17.5 -99 q-10 -68 -100 -68q-43 0 -61.5 18.5t-14.5 47.5q4 20 55.5 110t61.5 115l-8 4q-18 -18 -81 -86t-100 -92q-25 -14 -53 -4t-43 35q-22 45 -14 73.5z" />
<glyph unicode="+" d="M129 422v147h326v342h157v-342h326v-147h-326v-350h-157v350h-326z" />
<glyph unicode="," horiz-adv-x="512" d="M-10 -283q-8 29 24 37q57 16 120 69.5t63 119.5q0 59 -56 114l-14 13.5t-21.5 22.5t-18.5 29.5t-9 37.5q0 53 27.5 94t72.5 41q72 0 119 -46t61.5 -98.5t14.5 -105.5q0 -76 -33 -138.5t-79 -100t-99 -63.5t-90 -36t-54 -10h-4q-18 0 -24 20z" />
<glyph unicode="-" horiz-adv-x="847" d="M125 444v113q0 20 18 21h660q18 0 18 -17v-112q0 -18 -18 -19h-662q-16 0 -16 14z" />
<glyph unicode="." horiz-adv-x="512" d="M57 129q0 55 39 100t107 45q76 0 113.5 -47t37.5 -104q0 -61 -41 -102t-110 -41q-63 0 -104.5 40.5t-41.5 108.5z" />
<glyph unicode="/" horiz-adv-x="675" d="M-109 16q-14 12 0 31l979 1348q12 18 29 10l70 -45q18 -12 4 -33l-983 -1350q-16 -23 -33 -8z" />
<glyph unicode="0" d="M96 373q0 156 43 319.5t121 306t203 232.5t270 90q301 0 301 -360q0 -233 -72.5 -457.5t-220 -379.5t-331.5 -155q-166 0 -240 112t-74 292zM301 213q0 -147 102 -147q88 0 192.5 214t169 452.5t64.5 346.5q0 74 -19 107t-75 37q-92 0 -197.5 -205t-171 -442.5 t-65.5 -362.5z" />
<glyph unicode="1" d="M68 8l12 51q2 14 24 15h52q35 0 54 4t46 18.5t49.5 51t40.5 96.5l195 598q51 154 51 174q0 29 -33 28q-14 0 -76 -16l-127 -37q-10 -2 -16 6l-18 37q-8 14 6 21l503 235q66 31 91 31q31 0 30 -31q0 -27 -8 -45q-84 -225 -162 -465l-98 -303q-33 -115 -96 -305 q-16 -47 -3 -72.5t62 -25.5h111q18 0 14 -21l-10 -47q-2 -12 -19 -12q-4 0 -147 3t-174 3q-43 0 -192.5 -3t-151.5 -3q-14 0 -10 14z" />
<glyph unicode="2" d="M-66 25q0 27 33 49q125 88 241 181t237.5 213t195.5 247t76 235q0 78 -42 136.5t-128 58.5q-80 0 -149.5 -57.5t-106.5 -118.5q-16 -27 -25 -23l-43 21q-8 8 0 24q18 47 54 99.5t91.5 106.5t134.5 89t167 35q147 0 231 -87t84 -226q0 -55 -17.5 -113.5t-54 -115 t-74.5 -106.5t-97 -105l-101 -92q-43 -38 -110 -86l-98 -72q-32 -24 -90 -62.5t-67 -42.5v-23h304q162 0 258 142q16 25 26 18l29 -18q12 -8 2 -25q-33 -55 -84 -168.5t-61 -156.5q-4 -20 -21 -21q-20 0 -43 21q-18 18 -133 18h-416q-25 0 -60.5 -1t-47.5 -1q-57 -4 -64 -4 q-31 0 -31 31z" />
<glyph unicode="3" d="M-14 197q0 43 22.5 77.5t67.5 34.5q70 0 92 -45t16 -92q-6 -43 32 -85t95 -42q129 0 223.5 112.5t94.5 282.5q0 80 -43 144.5t-129 87.5q-49 12 -49 41q0 41 45 45q145 8 224 80.5t79 177.5q0 51 -40 96t-120 45q-78 0 -145.5 -42t-96.5 -83q-14 -20 -26 -12l-33 22 q-10 6 6 31q160 248 410 248q147 0 215.5 -65.5t68.5 -155.5q0 -113 -87 -211t-214 -152q94 -31 146.5 -105.5t52.5 -166.5q0 -211 -172 -353.5t-406 -142.5q-156 0 -242.5 70t-86.5 158z" />
<glyph unicode="4" d="M6 381q0 25 49 70l860 788q90 82 132 82q23 0 28.5 -23.5t-2.5 -48.5l-246 -739h164q20 0 13 -23l-41 -118q-8 -25 -31 -25h-158l-98 -303q-8 -25 -16.5 -33t-24.5 -8h-209q-25 0 -6 49l110 295h-469q-55 0 -55 37zM268 541q-35 -31 4 -31h310l147 405q10 27 -4 32 t-37 -15z" />
<glyph unicode="5" d="M18 90q0 35 17.5 57.5t44.5 22.5q53 0 100 -53q39 -45 150 -45q125 0 216 105.5t91 228.5q0 137 -92 200q-78 53 -213 53q-70 0 -80 9q-16 16 -8 39l192 565q6 18 31 18h434q31 0 54.5 13.5t33.5 24.5t35 44q12 14 35 0q31 -20 20 -35l-116 -229q-12 -20 -62 -21h-428 l-74 -208q176 -4 283 -56q203 -96 203 -344q-4 -82 -45 -168t-115 -163.5t-194.5 -128t-266.5 -50.5q-100 0 -173 29t-73 92z" />
<glyph unicode="6" d="M88 354q0 209 124 412t302 340t371 203q41 12 59 12q31 0 31 -43q0 -33 -29 -45q-338 -156 -500 -467l13 -12q92 53 221 53q123 0 203 -80t80 -209q0 -223 -145.5 -386t-358.5 -163q-180 0 -275.5 103.5t-95.5 281.5zM328 258q0 -209 131 -209q76 0 134 89t83.5 203 t21.5 216q-2 61 -36.5 106.5t-92.5 45.5q-106 0 -147 -66q-94 -158 -94 -385z" />
<glyph unicode="7" d="M203 973l184 366q14 27 39 19q23 -6 20 -29q-2 -25 14.5 -32t61.5 -7h559q33 0 33 -20q0 -16 -20 -51q-76 -115 -234 -414q-244 -463 -336 -690q-31 -76 -65.5 -111t-87.5 -35q-51 0 -77 30t-26 71q0 61 60 141l278 393l173 267q108 171 128 210h-411q-86 0 -131.5 -29.5 t-104.5 -107.5q-16 -20 -35 -6q-30 19 -22 35z" />
<glyph unicode="8" d="M78 250q0 57 26.5 111.5t55 88t89 72.5t84 51.5t83.5 40.5q14 8 20 11q-119 121 -153 180q-43 74 -43 145q0 143 119.5 257t357.5 114q156 0 245 -72.5t89 -185.5q0 -72 -39 -137.5t-103.5 -112.5t-111.5 -74.5t-97 -48.5q190 -168 190.5 -331.5t-124.5 -276.5t-330 -113 q-104 0 -180 30t-111.5 77t-51 90t-15.5 84zM287 246q0 -90 47 -146.5t123 -56.5q61 0 104 24.5t61.5 63.5t25.5 69.5t7 59.5q0 96 -40 159.5t-134 151.5q-194 -83 -194 -325zM467 1028q0 -47 30.5 -100.5t55.5 -79.5l98 -105q199 104 199 310q0 74 -45 132t-137 58 q-98 0 -149.5 -59.5t-51.5 -155.5z" />
<glyph unicode="9" d="M92 6q0 33 29 45q186 94 302 206t200 245l-13 12q-29 -14 -59 -22q-41 -10 -80 -11q-162 0 -235.5 97.5t-73.5 216.5q0 121 57 239.5t177 202.5t274 84q176 0 265 -93t89 -257q0 -170 -78 -337t-201.5 -296t-274.5 -224.5t-302 -136.5q-29 -8 -47 -8q-29 0 -29 37z M422 768q0 -76 27.5 -134.5t87.5 -58.5q61 0 96 23t63 82q76 156 76 350q0 211 -113 211q-76 0 -133 -90t-80.5 -194.5t-23.5 -188.5z" />
<glyph unicode=":" horiz-adv-x="512" d="M27 123q0 53 37.5 96t103.5 43q76 0 113.5 -45t37.5 -100q0 -57 -41.5 -97t-107.5 -40q-59 0 -101 41t-42 102zM223 737q0 51 39 94t103 43q76 0 113.5 -45t37.5 -98q0 -57 -42 -98t-107 -41q-61 0 -102.5 41t-41.5 104z" />
<glyph unicode=";" horiz-adv-x="512" d="M-31 -283q-8 29 25 37q57 16 119.5 69.5t62.5 119.5q0 59 -55 114q-2 2 -14.5 13.5t-21.5 22.5t-18.5 29.5t-9.5 37.5q0 53 28 94t73 41q96 0 145 -84t49 -166q0 -92 -47 -165t-111.5 -109.5t-116.5 -55t-79 -18.5h-4q-19 0 -25 20zM201 733q0 53 39 97t102 44 q74 0 110.5 -46t36.5 -101q0 -57 -40.5 -97t-106.5 -40q-59 0 -100 41t-41 102z" />
<glyph unicode="&#x3c;" d="M211 446v93l629 372v-157l-447 -252v-8l447 -250v-172z" />
<glyph unicode="=" d="M147 281v147h814v-147h-814zM147 602v148h814v-148h-814z" />
<glyph unicode="&#x3e;" d="M246 72v157l446 252v8l-446 261v161l628 -374v-93z" />
<glyph unicode="?" horiz-adv-x="870" d="M229 104q0 53 35 94.5t92.5 41.5t93 -39t35.5 -97q0 -45 -34.5 -84.5t-90.5 -39.5q-53 0 -92 32.5t-39 91.5zM244 524q0 209 309 365q68 35 100.5 53.5t72.5 52t55.5 73.5t15.5 95q0 53 -41 105.5t-127 52.5q-98 0 -164 -49t-66 -127q0 -41 17.5 -60.5t38.5 -19.5 q25 0 32 18q-10 25 -10 50q0 43 29 73.5t82 30.5q43 0 67.5 -27.5t24.5 -72.5q0 -78 -57.5 -123t-133.5 -45q-78 0 -133 44t-55 128q0 96 94 179t250 83q100 0 174 -31t106.5 -77t47 -86t14.5 -74q0 -197 -108.5 -322t-294.5 -178q-236 -68 -236 -146q0 -74 119 -73 q111 0 180 69q10 10 19 -2l20 -22q8 -8 4 -17q-27 -43 -91 -90t-138 -47q-96 0 -156.5 54t-60.5 163z" />
<glyph unicode="@" horiz-adv-x="1626" d="M156 512q0 227 128 433t343 332t452 126q285 0 426.5 -137.5t141.5 -380.5q0 -96 -39 -192.5t-110 -175.5t-183.5 -128t-245.5 -49q-113 0 -113 63.5t45 178.5l-16 8q-113 -147 -188 -201q-72 -49 -135 -49q-139 0 -134 152q0 111 82 252t201 242t217 101q51 0 78 -13 t53 -44l17 23q16 18 38 18h115q23 0 12 -20q-102 -215 -137 -328q-66 -203 -67 -258q-2 -18 13 -28.5t36 -10.5q82 0 186.5 130t104.5 349q0 203 -111 309.5t-309 106.5q-190 0 -356 -119t-258.5 -298t-92.5 -363q0 -223 138.5 -355.5t349.5 -130.5q209 0 329 68q20 12 27 2 l16 -41q4 -10 -14 -23q-59 -37 -171 -64.5t-222 -27.5q-309 0 -478 148.5t-169 394.5zM735 541q0 -72 58 -72q27 0 126 126t125 181q39 78 39 152q0 90 -63.5 90t-133 -96.5t-110.5 -208t-41 -172.5z" />
<glyph unicode="A" horiz-adv-x="1345" d="M-178 12l8 45q2 16 14 17h33q49 0 119 40t121 101l962 1137q16 18 47 18q37 0 158 16q27 4 57.5 10.5t38.5 6.5q22 0 22 -14q0 -3 -1 -7l-305 -1136q-23 -76 -23 -115q0 -25 21.5 -41t52.5 -16h43q8 0 13 -4t3 -11l-6 -47q-4 -18 -24 -18q-6 0 -41 1l-100 3q-65 2 -142 2 q-76 0 -136 -2l-92 -3q-32 -1 -42 -1q-25 0 -21 20l8 43q4 16 17 17h41q55 0 86.5 29.5t62.5 134.5l109 376h-342l-201 -260q-127 -166 -127 -217q0 -63 84 -63h51q16 0 15 -21l-7 -43q-4 -16 -22 -16q-4 0 -40 1l-103 3q-67 2 -146 2q-68 0 -125 -2l-88 -3q-31 -1 -37 -1 q-18 0 -16 18zM639 688h309l152 510q2 5 1 10q0 12 -12 17q-5 2 -10 1q-12 0 -20 -12z" />
<glyph unicode="B" horiz-adv-x="1290" d="M-18 14l8 43q4 16 18 17h68q80 0 112 121l261 972q12 45 12 74q0 51 -82 51h-57q-16 0 -13 19l8 47q2 14 27 14q8 0 229.5 3t264.5 3q240 0 350 -69q123 -76 123 -219q0 -172 -125 -265.5t-320 -124.5v-6q322 -80 322 -334q0 -137 -115 -245q-125 -121 -473 -121 q-53 0 -159.5 3t-155.5 3q-47 0 -142.5 -3t-142.5 -3q-20 0 -18 20zM471 217q-6 -34 -6 -58q0 -53 27 -67q43 -25 129 -24q123 0 199.5 101t76.5 237q0 78 -31.5 133t-83 80.5t-97.5 35t-93 9.5zM612 745q33 -8 84 -8q139 2 239.5 88t100.5 256q0 90 -63.5 157t-143.5 67 q-20 0 -69 -5z" />
<glyph unicode="C" horiz-adv-x="1396" d="M166 442q0 238 68.5 400t218.5 325q215 236 553 236q170 0 270 -68q68 -47 92 -47q41 0 53 43q6 18 19 15l43 -9q8 -3 8 -11q0 -4 -2 -9l-109 -434q-6 -16 -22 -13l-45 4q-16 0 -13 21q3 33 4 65q0 70 -16 133q-23 91 -91.5 155.5t-174.5 64.5q-100 0 -183 -54.5 t-169 -179.5q-197 -289 -197 -643q0 -184 88 -275t182 -91q322 0 494 356q4 12 20 8l46 -12q12 -4 10 -19l-146 -438q-5 -11 -18 -10h-4l-43 10q-10 4 -6 17q6 31 6 34q0 29 -31 29q-33 0 -80 -22q-33 -16 -121 -35t-163 -19q-248 0 -394.5 129t-146.5 344z" />
<glyph unicode="D" horiz-adv-x="1624" d="M-6 14l12 45q4 14 21 15h41q113 0 151 157l236 959q5 20 5 36q0 26 -15 42q-24 25 -54 24h-92q-14 0 -19.5 3t-0.5 14l12 49q4 14 33 14q61 0 149 6q18 0 111.5 3t130.5 3q256 0 440 -40.5t303 -157.5q154 -156 154 -371q0 -141 -40 -262t-104.5 -202t-121 -130 t-113.5 -82q-119 -68 -261.5 -102.5t-218 -38.5t-190.5 -4h-24q-27 0 -118 3t-120 3q-94 0 -162.5 -2t-97.5 -3t-31 -1q-18 0 -16 20zM481 131q0 -25 34 -41t67 -16q281 0 487 164q106 84 181 242.5t75 328.5q0 213 -135 342q-98 96 -176 121q-94 31 -185 31q-72 0 -75 -25 l-258 -1061q-15 -66 -15 -86z" />
<glyph unicode="E" horiz-adv-x="1382" d="M-31 14l6 43q6 16 17 17h55q104 0 139 110l312 973q10 32 9 56q0 32 -17 52q-30 34 -76 33h-72q-14 0 -8 17l12 49q4 14 25 14q4 0 37 -1l101 -3q69 -2 165 -2q174 0 321.5 2t229.5 3t94 1q23 0 30 -7t13 -32l65 -280q2 -10 -8 -17l-26 -14q-12 -6 -29 10l-227 246 q-12 14 -37 14h-273l-172 -530h160q66 0 122 33t116 135q10 16 20 14l39 -12q14 -4 10 -14q-80 -184 -108 -408q-2 -14 -19 -14l-39 2q-10 0 -12 20q-10 92 -64.5 131t-158.5 39h-86l-197 -620h393q55 0 112.5 25.5t117 81t89.5 87t83 94.5q12 14 24 9l27 -19q10 -6 4 -26 l-104 -297q-8 -23 -16.5 -29t-28.5 -6q-10 0 -55.5 1t-132.5 2t-158 1q-92 0 -284 1t-269 1q-53 0 -117 -1t-76 -1q-16 0 -29.5 -1t-20.5 -2t-11 -1q-18 0 -18 12q0 4 1 8z" />
<glyph unicode="F" horiz-adv-x="1310" d="M-6 10l8 51q2 12 18 13h52q84 0 121 121l321 1026q6 20 6 34q0 43 -53 43h-49q-20 0 -15 19l13 45q4 16 24 16q2 0 87 -3t169 -3q135 0 251 2t181.5 3t83.5 1q74 0 138.5 10.5t66.5 10.5q25 0 25 -33q2 -35 19 -164l11 -73t8.5 -57.5t2.5 -28.5q0 -11 -10 -15l-35 -16 q-14 -6 -27 14q-18 31 -84.5 122t-91.5 114q-27 20 -35 22t-63 6q-139 8 -320 8l-168 -542l199 4q197 2 256 209q4 14 24 10l43 -6q12 -2 9 -19l-121 -514q-2 -14 -21 -10l-41 2q-20 0 -16 21q4 34 4 61q0 64 -22 100q-33 51 -125 58l-211 12l-140 -459q-13 -56 -13 -89 q0 -22 6 -34q15 -29 73 -28h61q10 0 15.5 -5.5t3.5 -11.5l-15 -51q-2 -12 -24 -12q-4 0 -37 1l-101 3q-69 2 -165 2q-92 0 -156.5 -2t-93.5 -3t-33 -1q-16 0 -14 16z" />
<glyph unicode="G" horiz-adv-x="1515" d="M176 520q0 373 257 628t620 255q199 0 333 -103q27 -20 44 -20q20 0 55 63q6 14 22 9l31 -9q14 -4 12 -16l-116 -412q-2 -12 -19 -12l-53 2q-14 0 -14 23q1 16 0 31q0 54 -11 104q-14 63 -49 121.5t-103.5 93.5t-162.5 35q-205 0 -374 -245t-169 -564 q0 -209 101.5 -322.5t214.5 -113.5q121 0 159 22q33 18 41 72l47 231q5 24 6 41q0 25 -11 37q-17 20 -58 21h-72q-20 0 -14 20l8 43q2 16 23 16q8 0 43 -1l101 -3q67 -2 153 -2q80 0 137 2l85 3q28 1 36 1q20 0 18 -24l-6 -39q-2 -16 -18 -16h-33q-86 0 -103 -70l-71 -316 q-10 -33 -41 -47q-211 -90 -422 -90q-289 0 -458 159t-169 392z" />
<glyph unicode="H" horiz-adv-x="1679" d="M-31 8l11 49q2 16 18 17h49q49 0 81 35.5t58 115.5l322 977q6 19 6 35q0 20 -10 35q-18 27 -49 26h-70q-10 0 -14 3.5t-2 11.5l10 49q2 16 20 16q2 0 42 -1t113 -3t151 -2q63 0 124.5 2t98.5 3t41 1q10 0 15 -4t3 -12l-12 -49q-2 -14 -19 -15h-45q-92 0 -125 -104 l-137 -424q-8 -25 17 -25h567q23 0 31 25l141 444q5 15 5 27q0 20 -13 35q-20 23 -54 22h-32q-14 0 -13 15l13 53q4 12 20 12q4 0 42 -1t102.5 -3t134.5 -2q59 0 113.5 2t87 3t38.5 1q12 0 17.5 -4t3.5 -10l-10 -49q-4 -16 -19 -17h-39q-84 0 -119 -104l-315 -981 q-12 -37 -12 -67q0 -17 4 -31q10 -41 43 -41h72q23 0 16 -21l-8 -45q-2 -14 -25 -14q-4 0 -35 1l-94 3q-63 2 -147 2t-152 -2l-103 -3q-36 -1 -42 -1q-20 0 -17 18l11 47q2 14 18 15h51q47 0 81 36.5t67 137.5l127 387q8 29 -17 29h-565q-31 0 -37 -21l-139 -438 q-12 -47 -12 -75q0 -21 7 -32q15 -25 68 -24h52q18 0 14 -17l-6 -45q-2 -18 -23 -18q-4 0 -40 1l-105 3q-70 2 -158 2q-82 0 -146 -2l-97 -3q-32 -1 -33 -1q-8 0 -13.5 4t-3.5 10z" />
<glyph unicode="I" horiz-adv-x="788" d="M-41 14l10 47q2 12 17 13h67q45 0 71 6t43 29.5t23.5 42t20.5 69.5l256 942q7 39 7 66q0 25 -6 40q-13 30 -44 29h-94q-12 0 -16.5 3.5t-2.5 13.5l11 51q2 12 26 12q6 0 48 -1t115 -3t155 -2q78 0 144.5 2t104 3t46.5 1q24 0 23 -16q0 -4 -1 -8l-10 -39q-4 -16 -23 -17 h-63q-47 0 -83 -29.5t-59 -111.5l-256 -944q-9 -33 -8 -59q0 -80 88 -80h76q16 0 12 -21l-6 -43q-2 -16 -24 -16q-4 0 -45 1l-122 3q-81 2 -181 2q-80 0 -151 -2t-109.5 -3t-43.5 -1q-18 0 -16 20z" />
<glyph unicode="J" horiz-adv-x="831" d="M-244 -244q0 55 34 96.5t93 41.5q45 0 74 -31t29 -68q0 -16 -6.5 -46t-6.5 -42q0 -31 54 -31q70 0 118 85t107 298l311 1112q11 34 11 60q0 67 -76 67h-68q-10 0 -15 4.5t-3 12.5l10 47q2 16 20 16q2 0 40 -1l114 -3q76 -2 170 -2q74 0 136.5 2l96 3t37.5 1q20 0 19 -20 l-8 -45q-2 -14 -21 -15h-51q-90 0 -141 -163l-263 -873q-106 -354 -231 -502q-145 -170 -350 -170q-121 0 -177.5 51.5t-56.5 114.5z" />
<glyph unicode="K" horiz-adv-x="1474" d="M-16 20l8 37q4 16 26 17h31q94 0 133 119l316 976q12 40 12 67q0 18 -5 31q-13 32 -54 31h-52q-25 0 -18 21l14 47q4 12 25 12q4 0 35 -1l94 -3q63 -2 141 -2q82 0 144 2l91 3q30 1 36 1q14 0 12 -24l-6 -39q-2 -16 -25 -17h-41q-82 0 -115 -104l-149 -459q104 0 141 33 q389 336 479 463q20 27 12.5 47t-48.5 20h-25q-20 0 -16 21l8 43q6 16 22 16q4 0 39 -1t96.5 -3t131.5 -2q53 0 98 2t70.5 3t29.5 1q27 0 23 -22l-8 -37q-6 -20 -21 -21h-57q-68 0 -150 -59q-45 -33 -181 -147l-264 -226q-128 -111 -138 -118q45 -78 188 -309.5t172 -270.5 q74 -94 131 -94h49q23 0 19 -21l-11 -43q-2 -16 -24 -16q-4 0 -35 1t-100.5 3t-169.5 2q-72 0 -164 -4l-94 -2q-20 0 -19 18l4 45q4 16 19 17h20q37 0 57.5 19.5t6.5 45.5q-10 18 -124 235.5t-124 235.5q-25 43 -68 43l-145 -444q-8 -34 -8 -59.5t8 -41.5q16 -34 51 -34h45 q16 0 15 -21l-9 -43q-4 -16 -26 -16q-6 0 -42 1t-100.5 3t-140.5 2q-82 0 -142.5 -2t-88 -3t-29.5 -1q-20 -1 -16 26z" />
<glyph unicode="L" horiz-adv-x="1351" d="M-23 14l9 43q4 16 18 17h31q57 0 92 29.5t61 117.5l295 950q12 38 13 66q0 62 -66 61h-76q-20 0 -16 17l14 51q2 12 25 12q4 0 41 -1l105 -3q69 -2 151 -2q92 0 169 2l115 3q39 1 43 1q18 0 17 -20l-10 -43q-6 -16 -25 -17h-72q-57 0 -90 -27.5t-57 -109.5l-318 -1028 q-4 -13 -4 -24q0 -36 50 -35h157q209 0 260 8q43 6 95 53q47 43 130 130t91 102q12 23 22 20l37 -16q9 -3 9 -10q0 -2 -1 -5l-106 -354q-10 -33 -27 -33q-8 0 -53 12.5t-76 12.5q-10 0 -103 1t-253 3t-328 2q-72 0 -154.5 -2t-137 -3t-60.5 -1q-19 0 -17 20z" />
<glyph unicode="M" horiz-adv-x="1980" d="M-53 14l8 43q2 16 14 17h41q76 0 123 81t117 279l239 680q27 76 27 119q0 33 -22.5 49t-53.5 16h-80q-12 0 -16 3.5t-2 13.5l8 43q6 20 23 20l41 -2q41 0 136 -2t228 -2q27 0 34 -9t11 -38l125 -919q2 -20 15.5 -22.5t25.5 13.5l668 942q23 33 59 33q84 0 175 2t149.5 3 t64.5 1q20 0 19 -20l-8 -43q-2 -16 -21 -17h-41q-68 0 -108 -147l-263 -950q-8 -32 -8 -56q0 -23 7 -39q15 -33 44 -32h64q18 0 14 -17l-8 -47q-2 -16 -24 -16q-4 0 -38 1l-104 3q-70 2 -162 2q-74 0 -135 -2l-94 -3q-33 -1 -37 -1q-20 0 -18 20l4 39q4 20 22 21h37 q72 0 104.5 34.5t53.5 106.5l285 989q4 18 -9 19q-12 2 -22 -15l-834 -1177q-20 -31 -57 -31q-31 0 -37 45l-145 1032q-6 43 -23 2l-227 -665q-27 -76 -41 -135.5t-18.5 -97.5t1 -62.5t15.5 -34.5t26 -10h66q18 0 14 -17l-6 -47q-4 -16 -24 -16q-6 0 -34 1t-75 3t-102 2 q-51 0 -95.5 -2t-71 -3t-32.5 -1q-14 0 -12 20z" />
<glyph unicode="N" horiz-adv-x="1515" d="M-80 14l6 43q4 16 19 17h35q70 0 116.5 66.5t98.5 224.5l223 700q23 65 23 110q0 15 -3 28q-10 52 -31.5 73.5t-50.5 21.5h-82q-20 0 -14 21l10 43q6 16 23 16q6 0 44 -1l117 -3q79 -2 183 -2q53 0 78 -53l471 -913q8 -14 17 -10.5t16 22.5l167 547q52 165 52 248 q0 85 -54 85h-55q-14 0 -18 3.5t-2 13.5l6 49q2 14 20 14q6 0 36 -1t82 -3t115.5 -2t118 3t58.5 3q25 0 20 -24l-8 -39q-2 -16 -18 -17h-51q-70 0 -146 -213l-364 -1032q-18 -53 -43 -53q-35 0 -58 41l-538 1024q-8 14 -17.5 12t-13.5 -16l-154 -537q-71 -250 -71 -360 q0 -64 24 -82q10 -8 29 -8h82q18 0 16 -21l-6 -43q-6 -16 -25 -16q-6 0 -38.5 1t-87 3t-111.5 2q-61 0 -113.5 -2t-82 -3t-36.5 -1q-16 0 -14 20z" />
<glyph unicode="O" horiz-adv-x="1564" d="M201 569q0 219 90 407.5t268 307.5t412 119q260 0 415.5 -152.5t155.5 -439.5q0 -336 -222 -589t-558 -253q-236 0 -375 129q-186 172 -186 471zM453 414q0 -164 73.5 -253t208.5 -89q133 0 256 134t199 350t76 445q0 143 -64.5 221t-177.5 78q-86 0 -163 -44t-126 -111 q-123 -150 -202.5 -350.5t-79.5 -380.5z" />
<glyph unicode="P" horiz-adv-x="1282" d="M-14 14l4 39q4 20 22 21h33q61 0 94 42t54 117l243 922q11 43 11 73q0 64 -52 64h-96q-14 0 -10 21l12 47q2 12 27 12l211 4q211 2 268 2q182 0 269 -18.5t157 -77.5q70 -57 96.5 -116.5t26.5 -161.5q0 -190 -151.5 -323.5t-448.5 -133.5q-106 0 -197 22l-94 -346 q-7 -36 -8 -63q0 -86 73 -86h82q20 0 17 -21l-6 -43q-2 -16 -25 -16q-6 0 -43 1l-106 3q-70 2 -154 2t-151 -2l-100 -3q-34 -1 -42 -1q-18 0 -16 20zM580 653q53 -33 147 -32q154 0 247 122.5t93 276.5q0 82 -29.5 143.5t-72.5 91t-79 42t-63 12.5q-47 0 -71 -4z" />
<glyph unicode="Q" horiz-adv-x="1576" d="M178 -279q0 35 83 83.5t212 103.5t154 69v15q-199 35 -314.5 181t-115.5 407q0 193 92 370.5t186 257.5q63 51 97 76t99.5 58.5t145.5 47t184 13.5q250 0 404 -147.5t154 -426.5q0 -158 -57.5 -324.5t-170.5 -297.5q-156 -180 -457 -240q-100 -20 -229 -68.5t-211 -97.5 l4 -18q113 20 271 20q233 0 335 -133q70 -90 103 -121.5t59 -31.5q25 0 41.5 17t16.5 40q0 33 -13 59q-16 29 -16 68t26.5 64.5t73.5 25.5q100 0 101 -121q0 -111 -93.5 -172t-257.5 -61q-90 0 -148 28.5t-114 83.5q-78 78 -161.5 120t-215.5 42q-86 0 -98 -18 q-45 -76 -90 -76q-43 0 -61.5 33.5t-18.5 70.5zM432 389q0 -86 25.5 -149.5t60.5 -95t81 -50t74.5 -22.5t55.5 -4q135 0 269.5 143t217 361.5t82.5 426.5q0 299 -249 299q-147 -2 -294 -156.5t-235 -365.5t-88 -387z" />
<glyph unicode="R" horiz-adv-x="1443" d="M-39 14l8 43q2 16 21 17h65q25 0 47.5 28.5t34.5 69.5l328 1018q8 26 8 45q0 57 -72 57h-59q-20 0 -16 17l10 47q2 16 26 16q125 0 303.5 3t200.5 3q76 0 129.5 -3t129 -20.5t122.5 -47t82 -89t35 -141.5q0 -147 -141.5 -256.5t-354.5 -132.5v-4q76 -23 131 -123 q4 -6 84 -171t101 -197q74 -119 176 -119h51q18 0 14 -21l-6 -43q-4 -16 -20 -16q-6 0 -25 1l-57 3q-39 2 -90 2q-84 0 -148.5 -3t-70.5 -3q-14 0 -25.5 12t-34.5 53q-18 33 -112.5 244t-114.5 260q-8 18 -15.5 32.5t-17.5 24t-17 17.5t-18.5 12t-16.5 7t-17.5 4.5 t-15.5 1.5h-15h-13l-145 -441q-17 -48 -17 -78q0 -6 1 -12q4 -33 15 -45t30 -12h88q18 0 14 -17l-6 -51q-2 -12 -25 -12q-6 0 -42.5 1t-103.5 3t-144 2q-74 0 -134.5 -2l-93 -3t-39.5 -1q-14 0 -12 20zM596 735h33h41q12 0 42.5 2t53 7.5t54.5 15.5t63 24q76 35 133 119 t57 187q0 80 -53 149.5t-160 69.5q-59 0 -84 -2z" />
<glyph unicode="S" horiz-adv-x="1085" d="M102 68l152 446q4 12 18 8l45 -8q10 -4 9 -20q-7 -52 -7 -99q0 -128 54 -211q74 -113 182 -112q92 0 147.5 59t55.5 139q0 35 -9.5 67t-33.5 65l-40 54q-15 19 -55 60l-53 55q-131 143 -166 201q-76 121 -75 270q0 131 104.5 246t304.5 115q109 0 242 -92q10 -6 29 -6 q20 0 32 67q2 8 21 6l26 -2q16 -2 15 -14l-74 -389q-2 -12 -16 -12l-45 2q-16 0 -17 18q1 10 1 20q0 31 -5 66q-6 47 -26.5 103.5t-68.5 93t-120 36.5q-80 0 -125 -58t-45 -122q0 -41 8 -73.5t33 -66.5l38 -50.5t55 -57.5l55 -53l34 -35q37 -35 43 -42l36 -42q30 -35 39 -52 t30.5 -54t29 -65.5t14.5 -70.5t7 -85q0 -188 -122 -296t-310 -108q-162 0 -283 144q-12 16 -30.5 17t-24.5 -9q-45 -59 -53 -78q-6 -12 -21 -6l-26 10q-9 3 -10 13q0 4 1 8z" />
<glyph unicode="T" horiz-adv-x="1351" d="M143 1051q16 31 84 184.5t72 165.5q6 20 20 20q8 0 46 -20q57 -29 383 -29h432q274 0 336 37q20 12 28 12q10 0 17 -4q5 -3 4 -7q0 -13 -2 -40.5l-5.5 -75t-6.5 -93.5q-6 -113 -6 -173q0 -27 1 -43q0 -14 -16 -16l-37 -6q-8 -2 -14 5t-15 25q-74 203 -90 228 q-49 74 -301 73l-315 -1044q-17 -59 -17 -96q0 -25 8 -41q19 -39 97 -39h80q18 0 14 -21l-8 -43q-4 -16 -27 -16q-4 0 -46 1t-134 3t-219 2q-66 0 -129.5 -2t-103.5 -3t-46 -1q-18 0 -16 20l6 43q4 16 23 17h55q78 0 118 44t76 163l308 1013q-176 0 -247 -9t-108 -42 q-109 -96 -237 -229q-8 -8 -19 -4l-41 22q-6 2 -5 8q-1 5 3 11z" />
<glyph unicode="U" horiz-adv-x="1519" d="M231 344q0 106 43 256l175 571q12 38 11 65q0 62 -63 62h-73q-16 0 -15 17l10 47q2 16 27 16q4 0 39 -1l107 -3q72 -2 167 -2q74 0 133 2l89 3q31 1 34 1q20 0 19 -24l-8 -39q-4 -16 -21 -17h-51q-82 0 -117 -112l-168 -547q-59 -217 -59 -289q0 -82 28.5 -139t72.5 -82 t76 -33t61 -8q166 0 268 82q78 61 131 156.5t96 259.5l125 471q25 86 30 139q1 14 1 26q0 34 -10 52q-14 25 -50 24h-53q-23 0 -18 17l6 43q6 20 26 20l76 -2q74 -4 144 -4q51 0 93 2l64 3q23 1 29 1q20 0 18 -24l-6 -39q-4 -16 -22 -17h-23q-82 0 -153 -223l-156 -504 q-45 -145 -94 -244.5t-126 -186.5t-191.5 -129t-268.5 -42q-201 0 -327 96.5t-126 278.5z" />
<glyph unicode="V" horiz-adv-x="1224" d="M223 39l152 1147q2 19 2 34q0 78 -60 78h-67q-12 0 -17.5 3.5t-3.5 11.5l13 45q2 20 22 20q6 0 44 -1l109 -3q71 -2 154 -2q66 0 124.5 2t93 3t40.5 1q14 0 19.5 -5t3.5 -15l-8 -43q-2 -16 -19 -17h-49q-94 0 -108 -86l-127 -753q-6 -39 7 -45t32 20l497 656 q93 123 93 175q0 18 -11 27q-8 6 -22 6h-35q-29 0 -23 25l8 39q2 16 25 16q4 0 72.5 -3t130.5 -3q70 0 132 3t64 3q25 0 21 -24l-6 -35q-2 -20 -19 -21h-32q-88 0 -289 -243l-860 -1061q-27 -35 -70 -35q-35 0 -35 52q0 13 2 28z" />
<glyph unicode="W" horiz-adv-x="1742" d="M240 39l112 1151q2 25 3 44q0 65 -27 64h-52q-12 0 -17 3.5t-3 11.5l10 49q4 16 25 16q4 0 37.5 -1t93 -3t129.5 -2q55 0 107.5 2t83 3t38.5 1q12 0 17.5 -4t3.5 -12l-8 -47q-4 -16 -21 -17h-24q-49 0 -74 -24.5t-33 -85.5l-100 -762q-2 -20 9 -23.5t21 13.5l387 575 q78 119 78 230q0 78 -43 77h-20q-12 0 -16.5 3.5t-2.5 9.5l9 55q4 12 24 12q4 0 30 -1l75 -3q49 -2 112 -2q55 0 100.5 2l70 3t32.5 1q20 0 18 -24l-6 -39q-2 -16 -22 -17h-23q-57 0 -65 -98l-74 -782q-2 -33 8 -36t29 24q92 135 239 387q141 246 181 399q8 29 7 50 q0 57 -57 56h-38q-18 0 -17 17l8 43q4 20 23 20q2 0 61.5 -3t126.5 -3q59 0 106.5 2t74 3t34.5 1q14 0 20.5 -4t4.5 -12l-10 -47q-2 -16 -17 -17h-34q-57 0 -97 -55q-8 -12 -90 -146l-177 -290l-114 -184q-113 -184 -401 -588q-53 -76 -96 -76q-44 0 -44 65q0 8 1 17l30 813 q2 18 -10 17t-22 -17q-16 -25 -280 -390l-320 -446q-41 -59 -89 -59q-38 0 -37 61q0 9 1 19z" />
<glyph unicode="X" horiz-adv-x="1300" d="M-188 10l8 43q6 20 20 21h45q35 0 69 13t50 23.5t53 41t45 36.5q25 18 248 232l264 254l-170 497q-23 66 -45 96.5t-57 30.5h-53q-18 0 -17 21l7 39q2 20 16 20l98 -2q96 -4 199 -4q76 0 147 4l72 2q23 0 18 -18l-6 -45q-4 -16 -18 -17h-39q-46 0 -47 -48q0 -22 10 -54 l100 -332q23 20 160 169t156 175q20 31 6 60.5t-55 29.5h-37q-18 0 -17 17l7 51q4 12 24 12q8 0 41 -1t88 -3t121 -2t127 4l63 2q12 0 17.5 -4t3.5 -10l-6 -49q-2 -16 -19 -17h-34q-66 0 -162 -73q-14 -10 -232.5 -223.5t-226.5 -219.5l203 -602q14 -45 49 -75.5t65 -30.5 h41q16 0 17 -21l-4 -43q0 -16 -21 -16q-4 0 -35 1l-96 3q-66 2 -153 2q-76 0 -158 -3t-90 -3q-16 0 -15 18l9 45q4 16 18 17h37q35 0 46 23.5t3 54.5q-106 375 -135 438q-295 -295 -381 -420q-18 -26 -18 -50q0 -8 2 -16q8 -31 51 -30h41q14 0 10 -21l-4 -39q-4 -20 -25 -20 q-6 0 -39 1l-94 3q-61 2 -137 2q-59 0 -134 -3t-77 -3q-10 0 -15 4t-3 12z" />
<glyph unicode="Y" horiz-adv-x="1228" d="M131 1315l8 47q2 16 21 16q6 0 36 -1l90 -3q60 -2 144 -2t150 2l99 3q34 1 40 1q10 0 15 -4t3 -12l-4 -47q-2 -16 -18 -17h-53q-52 0 -53 -50q0 -19 7 -44l142 -532q8 -29 21.5 -30t27.5 26q0 2 149.5 242.5t159.5 275.5q10 31 10 53q0 60 -71 59h-49q-18 0 -15 21l4 47 q2 12 25 12q4 0 79 -3t142 -3q59 0 109.5 2t79 3t36.5 1q23 0 21 -20l-6 -45q-2 -14 -17 -15h-39q-88 0 -145 -88q-6 -8 -210 -296.5t-220 -319.5q-29 -53 -57 -178l-52 -228q-8 -39 -8 -63q0 -23 7 -32q15 -19 75 -19h33q18 0 14 -17l-6 -47q-4 -16 -22 -16q-8 0 -41 1 l-95 3q-61 2 -141 2q-84 0 -148 -2l-96 -3q-31 -1 -34 -1q-18 0 -17 16l8 47q0 16 19 17h39q111 0 133 104l67 303q6 26 6 50q0 28 -8 55l-209 635q-27 78 -124 77h-48q-16 1 -14 17z" />
<glyph unicode="Z" horiz-adv-x="1388" d="M68 25q0 20 16 38l1040 1231q-442 0 -579 -47q-139 -53 -207 -196q-10 -16 -27 -13l-35 15q-14 4 -8 14l92 315q8 31 20.5 31t31.5 -14q37 -27 299 -27h731q31 0 31 -24q0 -23 -15 -41l-1028 -1227q244 0 361.5 8t226.5 43q55 18 121.5 72.5t117.5 138.5q10 14 21 10 l33 -16q16 -6 8 -25l-111 -323q-6 -23 -22 -23q-18 0 -39 12q-37 23 -406 23h-643q-30 0 -30 25z" />
<glyph unicode="[" horiz-adv-x="634" d="M-14 -416l538 1977q6 20 29 20h410q10 0 14 -3t2 -11l-14 -54q-4 -10 -29 -10h-201q-16 0 -24 -28l-500 -1823q-4 -20 12 -21h228q16 0 14 -14l-12 -47q-2 -14 -31 -14h-426q-20 -1 -10 28z" />
<glyph unicode="\" horiz-adv-x="655" d="M217 1356q-6 16 14 18l95 29q20 4 24 -14l277 -1375q2 -8 -4.5 -12t-16.5 -6l-90 -25q-14 -2 -20 19z" />
<glyph unicode="]" horiz-adv-x="634" d="M-258 -430l14 53q4 10 29 10h201q16 0 24 29l500 1823q4 20 -12 20h-228q-16 0 -14 15l12 47q2 14 31 14h418q25 0 18 -29l-538 -1976q-6 -20 -29 -20h-410q-10 0 -14 3t-2 11z" />
<glyph unicode="^" d="M94 549l426 854h68l426 -854h-164l-293 616h-12l-295 -616h-156z" />
<glyph unicode="_" d="M0 -154h1024v-102h-1024v102z" />
<glyph unicode="`" horiz-adv-x="491" d="M260.5 1235q20.5 59 79.5 59q49 0 82 -49l158 -244q8 -8 0 -16l-15 -16q-8 -10 -18 0l-244 161q-63 46 -42.5 105z" />
<glyph unicode="a" horiz-adv-x="974" d="M31 139q0 133 73.5 303t204.5 301t269 131q102 0 159 -71l33 59q14 23 37 23h145q18 0 18 -15q0 -4 -1 -10q-137 -395 -146 -426q-2 -10 -23.5 -80.5t-39 -135t-17.5 -79.5q0 -25 25 -24q10 0 22.5 9t28 25.5t26.5 30t23.5 30.5t14.5 19q12 14 20 9l25 -17q8 -4 -2 -26 q-16 -33 -50 -76t-111 -91t-163 -48q-84 0 -84 65q0 33 80 266l-18 11q-49 -76 -75 -111t-83 -101.5t-119.5 -98t-130.5 -31.5q-45 0 -93 50t-48 109zM274 207q0 -61 50 -62q37 0 143 138.5t141 214.5q47 106 47 196q0 33 -29.5 62.5t-60.5 29.5q-76 0 -153 -139 q-138 -243 -138 -440z" />
<glyph unicode="b" horiz-adv-x="962" d="M33 127q0 63 24 129q150 410 377 973q16 39 17 55q0 31 -48 31h-67q-14 0 -12 14l14 43q6 16 20 17h353q33 0 16 -37l-332 -740l21 -10q84 129 169 200.5t206 71.5q68 0 109.5 -56t41.5 -126q0 -272 -221 -506q-94 -102 -209 -154t-297 -52q-78 0 -130 37.5t-52 109.5z M258 127q0 -31 14.5 -45t53.5 -16q37 0 93 35.5t103 93.5q178 209 178 436q0 43 -14 70.5t-37 27.5q-41 0 -109.5 -69.5t-142.5 -184.5q-51 -80 -95 -190.5t-44 -157.5z" />
<glyph unicode="c" horiz-adv-x="677" d="M51 207q0 94 39 208.5t104.5 217t164 172t204.5 69.5q80 0 120 -37.5t40 -74.5q0 -45 -29.5 -82t-62.5 -37q-66 0 -82 53q-18 66 -66 66q-27 0 -47 -32t-51 -105q-33 -84 -45 -119t-24.5 -104.5t-12.5 -155.5q0 -129 78 -129q43 0 94 24.5t74 48.5q10 14 18 9l25 -21 q12 -8 2 -22q-35 -53 -129 -114.5t-209 -61.5q-78 0 -141.5 59t-63.5 168z" />
<glyph unicode="d" horiz-adv-x="995" d="M31 172q0 109 61.5 258.5t175.5 278.5q156 166 310 165q100 0 155 -65l115 422q10 35 -4.5 59.5t-52.5 24.5h-60q-20 0 -16 14l8 47q2 12 35 13h344q31 0 31 -23q0 -9 -5 -20q-25 -68 -181 -567.5t-175 -585.5q-7 -32 -7 -52q0 -36 21 -37q8 0 21.5 9.5t30 24t28.5 26.5 l27 26l12 15q12 12 21 2l24 -25q8 -8 0 -20q-14 -18 -33.5 -38t-65.5 -58.5t-110.5 -62t-134.5 -23.5q-78 0 -78 61t74 274l-24 13q-45 -74 -81 -124t-87.5 -107.5t-105.5 -87t-111 -29.5q-72 0 -117 61t-45 131zM283 197q0 -72 49 -72q14 0 35.5 18.5t56.5 63.5t51 68 l62 87q47 68 88 158t41 146q0 59 -27 97t-76 38q-76 0 -178 -237.5t-102 -366.5z" />
<glyph unicode="e" horiz-adv-x="798" d="M51 209q0 129 60.5 272.5t187.5 249.5q168 143 342 143q80 0 120 -38.5t40 -102.5q0 -160 -187 -266q-137 -78 -301 -90q-16 -37 -16 -129q0 -55 29.5 -94t81.5 -39q123 0 221 106q8 12 16 6l33 -22q10 -8 4 -21q-35 -68 -145.5 -136t-245.5 -68q-106 0 -173 61.5 t-67 167.5zM330 453q3 0 5 -1q30 0 83 21q57 23 98 62q27 25 46.5 71.5t19.5 95.5q0 70 -56 70q-53 0 -111 -103t-85 -216z" />
<glyph unicode="f" horiz-adv-x="632" d="M-434 -475q0 45 27.5 76.5t72.5 31.5q47 0 75 -31.5t32 -82.5q4 -35 45 -35q74 0 138 131t130 410l164 698h-172q-18 0 -15 18l13 56q4 16 22 16h170q16 39 38 107.5l36 109.5t53 104.5t97 127.5q45 49 140 98t183 49q123 0 181.5 -44t58.5 -105q0 -39 -31 -71t-74 -32 q-109 0 -129 109q-12 59 -65 59q-43 0 -80 -40t-62.5 -107.5t-46 -142l-41.5 -158.5q-10 -43 -14 -64h215q18 0 14 -18l-10 -52q-2 -20 -22 -20h-213q-12 -43 -51 -202t-77 -297t-71 -234q-86 -250 -226.5 -424t-314.5 -174q-90 0 -140 37t-50 96z" />
<glyph unicode="g" horiz-adv-x="960" d="M-154 -352q0 53 15.5 84.5t64.5 72.5q78 61 262 138q-80 59 -79 127q0 35 50 76.5t134 76.5v4q-98 49 -136 102.5t-38 159.5q0 131 119.5 258t314.5 127q160 0 223 -96q96 74 170 74q45 0 69.5 -28.5t26.5 -65.5q-2 -39 -25.5 -63.5t-60.5 -24.5q-35 0 -65 30 q-23 23 -35 23q-27 0 -45 -18q12 -29 12 -109q0 -96 -97 -225t-255 -150q-90 -12 -92 -12q-70 -31 -70 -86q0 -31 51 -60l58 -29l108 -58l129 -70q160 -88 160 -209q0 -150 -160 -232q-143 -74 -348 -73q-195 0 -328 76t-133 180zM80 -319q0 -106 78 -159.5t207 -53.5 q76 0 141 37.5t65 109.5q0 61 -28.5 93t-120.5 85q-158 86 -189 107q-74 -45 -113.5 -95t-39.5 -124zM346 385q0 -96 62 -96q74 0 131 129t57 256q0 39 -1 56.5t-6 37.5t-17.5 27.5t-32.5 7.5q-33 0 -57.5 -20.5t-53.5 -75.5q-43 -76 -60.5 -133.5t-19.5 -84t-2 -104.5z" />
<glyph unicode="h" d="M-6 25l426 1144q29 72 29 107q0 39 -64 39h-57q-16 0 -13 16l11 41q6 16 22 17h369q25 0 24.5 -20.5t-22.5 -72.5l-303 -714l18 -15q193 307 375 307t182 -217q0 -219 -131 -448q-160 -274 -364 -275q-55 0 -93 34t-36 98q-2 41 22.5 72.5t67.5 31.5q39 0 58.5 -22.5 t23.5 -53.5q4 -74 39 -74q43 0 104 220q4 14 6 20q68 236 68 373q0 88 -62 88q-82 0 -260 -236q-70 -96 -104 -184l-117 -287q-8 -14 -35 -14h-164q-23 0 -23 14q0 5 3 11z" />
<glyph unicode="i" horiz-adv-x="606" d="M66 623l8 10q6 10 15 21l25 29q15 17 31.5 33.5t39 36t45 37t50 33t55 26.5t59.5 18t65 7q90 0 90 -73q0 -35 -66 -226l-110 -313q-33 -94 -33 -125q0 -29 26.5 -28.5t81 51.5t70.5 76q8 10 17 2l24 -25q8 -8 2 -20q-8 -12 -20.5 -29t-49 -52.5t-78.5 -62t-109.5 -48 t-141.5 -21.5q-80 0 -80 61q0 31 121 381l55 162q31 88 31 114.5t-27 26.5q-20 0 -71.5 -50t-77.5 -87q-12 -12 -23 -2l-18 18q-8 8 -9 14q1 3 3 5zM348 1206q0 49 38 87t89 38q70 0 108 -31.5t38 -82.5q0 -49 -43 -92.5t-99 -43.5q-59 0 -95 34t-36 91z" />
<glyph unicode="j" horiz-adv-x="571" d="M-412 -331q0 47 28 81q30 37 77 37q53 0 83.5 -34t30.5 -75q0 -31 10.5 -50t24.5 -19q72 0 139.5 142.5t159.5 443.5l131 423q10 33 11 72q0 12 -9.5 21.5t-23.5 9.5q-49 0 -150 -100q-8 -8 -16 0l-21 22q-8 8 -2 16q39 57 155 136t247 79q33 0 58.5 -22.5t25.5 -54.5 q0 -84 -76 -310l-119 -354q-25 -76 -65.5 -160t-110.5 -193.5t-171 -180t-212 -70.5q-96 0 -150.5 42t-54.5 98zM344 1207q0 54 40 96q42 43 114 43q70 0 106.5 -35t36.5 -84q0 -57 -45 -101.5t-104 -44.5q-57 0 -102.5 37t-45.5 89z" />
<glyph unicode="k" horiz-adv-x="964" d="M-6 10q-2 5 -2 10.5t2 10.5l452 1194q9 22 9 39q0 15 -6 26q-14 25 -56 25h-57q-16 0 -10 20l12 37q10 16 24 17h375q31 0 13 -41l-310 -699l15 -8q63 86 164.5 159.5t195.5 73.5q61 0 101 -33.5t40 -99.5q0 -59 -43 -118.5t-109.5 -104.5t-122.5 -74.5t-103 -48.5v-16 l151 -232q47 -70 80 -69q37 0 84 47q8 10 18 0l23 -27q6 -8 -6 -20q-94 -98 -242 -98q-82 0 -123 27.5t-74 94.5l-88 205q-16 37 -65 37l-115 -330q-4 -14 -31 -14h-180q-12 0 -16 10zM358 399q21 -4 42 -4q96 0 200 91q127 112 127 206q0 20 -12.5 35.5t-34.5 15.5 q-35 0 -109.5 -59t-103.5 -96q-59 -74 -61 -76z" />
<glyph unicode="l" horiz-adv-x="532" d="M25 66q0 31 57 190l321 930q16 45 16 74q0 55 -54 55h-60q-20 0 -16 18l12 41q4 14 21 15h360q20 0 20 -16q0 -8 -6 -21l-409 -1149q-12 -33 -12 -54q0 -34 32 -34q47 0 148 100q8 10 18 0l23 -25q6 -10 0 -22q-10 -16 -53.5 -56t-138.5 -86t-191 -46q-31 0 -59.5 29.5 t-28.5 56.5z" />
<glyph unicode="m" horiz-adv-x="1572" d="M63 27l134 387l25 74l27 75l21.5 62.5t15.5 52t5 29.5q0 29 -25 28q-18 0 -70.5 -51t-68.5 -76q-10 -12 -23 0l-22 21q-10 10 -4 18q41 66 138 146.5t204 80.5q115 0 115 -79q0 -27 -27 -98.5t-62.5 -151.5t-37.5 -86l20 -15q129 215 201 297q121 133 235 133 q49 0 89 -31.5t40 -68.5q0 -53 -104 -323l18 -15l58 88l66 102q22 32 68 89t82 84.5t85 51t96 23.5q57 0 91 -38.5t34 -75.5q0 -68 -107 -371q-78 -221 -77 -235q4 -29 24 -29q23 0 58.5 36t55.5 63l32 46q8 12 16 9l29 -21q6 -5 5 -12q0 -6 -3 -15q-4 -8 -19.5 -31.5 t-50.5 -62.5t-76 -72.5t-102.5 -59t-124.5 -25.5q-47 0 -70 22q-25 25 -24 53q0 59 110 351q82 217 82 262q0 39 -37 39q-25 0 -116 -110t-189 -259q-43 -68 -69 -145l-64 -181q-4 -12 -29 -12h-174q-29 0 -20 27l123 340q94 260 94 299q0 41 -35 41q-27 0 -117 -104.5 t-176 -237.5q-47 -68 -86 -170l-67 -181q-4 -14 -29 -14h-172q-21 0 -21 14q-1 6 2 13z" />
<glyph unicode="n" horiz-adv-x="1087" d="M51 23l142 393q92 252 92 289q0 33 -27 32q-20 0 -64 -39t-73 -71q-10 -12 -21 -2l-20 22q-10 8 -2 21q156 207 373 206q41 0 61 -24.5t20 -54.5q0 -41 -98 -267l19 -14q125 182 209 258q117 102 225 102q61 0 96 -44t35 -93q0 -51 -119 -383q-66 -186 -65 -209 q0 -35 26 -34q16 0 54 31.5t59 56.5q8 12 20 0l19 -17q7 -6 6 -12q0 -6 -4 -12q-23 -29 -57.5 -63t-116.5 -74.5t-170 -40.5q-82 0 -82 77q0 37 106 340q82 236 82 269q0 45 -41 45q-35 0 -127 -97.5t-153 -199.5q-90 -143 -101 -172l-80 -230q-6 -12 -30 -12h-174 q-20 0 -21 13q0 5 2 10z" />
<glyph unicode="o" horiz-adv-x="858" d="M63 293q0 287 162 463q113 119 293 118q47 0 92 -12t92.5 -43t76 -94t28.5 -152q0 -111 -42 -245.5t-130 -229.5q-111 -119 -301 -118q-104 0 -187.5 77.5t-83.5 235.5zM233 188q0 -35 19.5 -62.5t52.5 -27.5q104 0 211 203q49 92 87 202.5t38 166.5q0 88 -76 88 q-57 0 -107 -54.5t-122 -183.5q-103 -180 -103 -332z" />
<glyph unicode="p" horiz-adv-x="1017" d="M-287 -598l11 41q4 16 16 16h47q98 0 156 162l376 1090q-66 -16 -132 -66.5t-97 -91.5q-10 -14 -22 -4l-21 18q-10 8 0 23q129 176 315 241l62 209q6 20 37 27l233 66q8 4 13 4q10 0 10 -9q0 -2 -3 -8t-3 -8l-111 -242q18 4 68 4q145 0 228 -78.5t83 -207.5 q0 -252 -252 -434q-172 -125 -434 -154l-131 -401q-16 -53 -17 -85q0 -15 5 -25q12 -30 69 -30h57q16 0 13 -16l-13 -45q-4 -12 -24 -12q-6 0 -35 2t-87 3t-134 1q-84 0 -145.5 -1t-90 -3t-32.5 -2q-17 0 -15 16zM322 76q145 23 282 152.5t137 306.5q0 123 -36.5 178 t-88.5 55q-33 0 -53 -4z" />
<glyph unicode="q" horiz-adv-x="987" d="M63 227q0 319 213 531q70 68 140.5 92t175.5 24q111 0 168 -73q8 -12 28 -2l175 71q20 10 43 11q14 0 18 -15q1 -4 1 -9q0 -14 -7 -36l-469 -1257q-14 -39 -14 -64q0 -41 38 -41h58q18 0 12 -16l-12 -41q-4 -16 -21 -16q-6 0 -36.5 2t-87 3t-128.5 1q-76 0 -135 -1 t-90 -3t-37 -2q-18 0 -16 20l8 37q6 16 18 16h52q106 0 149 101l221 510l-16 12q-96 -102 -227 -102q-82 0 -152 59t-70 188zM268 158q0 -92 82 -92q86 0 172 132t133 271t47 199q0 115 -73 114q-35 0 -58.5 -14t-62.5 -57q-94 -106 -167 -272t-73 -281z" />
<glyph unicode="r" horiz-adv-x="798" d="M68 639q-4 3 -4.5 9t4.5 16q39 70 125 140t202 70q55 0 81 -24.5t26 -57t-88 -270.5l22 -12q166 365 324 364q47 0 82 -31.5t35 -78.5q0 -51 -31 -92t-62 -41q-43 0 -67 16q-39 25 -58 25q-45 0 -112.5 -89t-106.5 -177q-35 -84 -67 -185l-66 -207q-6 -14 -26 -14h-177 q-27 0 -18 18l98 332q98 324 99 357q0 16 -10.5 27t-24.5 11q-23 0 -68 -37.5t-67 -74.5q-12 -18 -25 -8z" />
<glyph unicode="s" horiz-adv-x="665" d="M-23 102q0 47 25 74t64 27q72 0 110 -97q18 -51 55 -51q94 0 97 138q0 31 -10.5 54t-39.5 68l-47 72l-20 34l-18.5 32l-14.5 25.5t-12 24.5t-8 21.5t-7 24.5t-3.5 23.5t-2.5 27.5q0 113 90.5 193.5t249.5 80.5q72 0 124.5 -29.5t52.5 -94.5q0 -47 -25 -75t-68 -28 q-80 0 -90 86q-8 61 -49 62q-37 0 -55.5 -21.5t-18.5 -91.5q0 -76 107 -201q47 -57 61.5 -101t14.5 -108q0 -127 -91.5 -209.5t-250.5 -82.5q-106 0 -163 33.5t-57 88.5z" />
<glyph unicode="t" horiz-adv-x="657" d="M66 53q0 70 22 127l186 543h-159q-20 0 -13 22l13 54q6 14 22 14h170l68 221q10 27 69 29q35 2 97.5 27.5t83.5 39.5q20 12 32 13q10 0 15.5 -13.5t1.5 -23.5l-131 -293h207q12 0 11 -10q0 -4 -1 -8l-15 -54q-6 -18 -26 -18h-207l-168 -451q-29 -92 -29 -108 q0 -39 45 -39q27 0 93.5 42t81.5 58q8 10 18 0l22 -24q8 -8 7 -17q-41 -55 -159 -129.5t-251 -74.5q-49 0 -77.5 23t-28.5 50z" />
<glyph unicode="u" horiz-adv-x="1067" d="M78 659q-3 5 -3 10t3 9q27 35 47 56.5t66.5 60.5t106.5 59t130 20q49 0 78 -27.5t29 -68.5q0 -80 -111 -350q-86 -209 -86 -254q0 -16 11 -26.5t24 -10.5q25 0 127 119t145 188q51 86 88 199l66 197q4 14 30 14h183q23 0 23 -15q0 -5 -3 -12l-143 -438q-74 -223 -74 -252 q2 -25 27 -24q27 0 110 108q10 12 21 2l22 -16q6 -4 0 -23q-35 -68 -122 -136t-211 -68q-86 0 -87 69q0 47 101 311l-23 13q-43 -68 -76.5 -114t-99 -122t-137.5 -116.5t-143 -40.5q-39 0 -75 35.5t-32 64.5q0 43 16.5 100.5t34.5 103.5l72 177q82 201 82 252q0 35 -35 35 q-20 0 -62 -32t-77 -75q-10 -14 -23 -2z" />
<glyph unicode="v" horiz-adv-x="1136" d="M80 563q0 111 80 203q29 33 47 48t68.5 32.5t117.5 17.5q111 0 178.5 2t92 5t26.5 3q23 0 32 -9t-3 -31q-76 -119 -99.5 -162t-47 -131t-23.5 -205q0 -94 31.5 -147.5t74.5 -53.5q115 0 172 82q61 88 82 163t21 189q1 16 1 30q0 66 -32 95q-29 29 -29 76q0 31 36 67.5 t102 36.5q55 0 82.5 -51t27.5 -123q0 -104 -28.5 -189t-118.5 -230q-82 -133 -198 -217t-253 -84q-76 0 -149 65q-49 45 -49 170q0 113 51 227q14 31 33.5 65t37 59.5t42 57l38.5 48.5l39 44q25 28 31 34l-12 14q-66 -66 -199 -66h-100q-109 0 -113 -59q2 -25 66 -59 q45 -27 45 -93q0 -84 -91 -84q-45 0 -77.5 42t-32.5 118z" />
<glyph unicode="w" horiz-adv-x="1589" d="M80 582q0 98 90 200q37 41 78 56.5t119 15.5h174q14 0 31.5 1t38 3t32.5 2q53 6 96 6q20 0 27.5 -11t-6.5 -32q-59 -78 -128 -230.5t-69 -277.5q0 -55 30 -99t75 -46q102 0 176 90q55 66 80 270q2 18 4 67.5t6 95.5t14 83t46 54.5t73 17.5q35 0 58.5 -16.5t23.5 -41 t-12.5 -61.5t-33 -89t-32.5 -95q-45 -170 -45 -230q0 -61 30.5 -103t94.5 -42q100 0 171 94t71 225q0 147 -50 193q-16 14 -31.5 42t-15.5 50q0 41 29 70.5t72 29.5q164 0 164 -227q0 -113 -49.5 -242t-127.5 -237q-66 -92 -134 -140t-173 -48q-160 0 -196 208 q-59 -78 -147.5 -143t-190.5 -65q-100 0 -153.5 58t-53.5 165q0 121 97 286.5t200 276.5l-10 6l-37 -27q-37 -29 -83 -48t-97 -19h-160q-78 0 -78 -41q0 -36 72 -62q45 -18 45 -88q0 -37 -23.5 -61.5t-69 -24.5t-79 50.5t-33.5 130.5z" />
<glyph unicode="x" horiz-adv-x="962" d="M4 61q0 31 15.5 99.5t31.5 107.5q4 12 17 8l30 -8q12 -2 8 -16q-11 -43 -10 -71q0 -52 37 -52q29 0 115 88t149 178l-69 283q-10 47 -43 47q-45 0 -123 -152q-6 -12 -21 -6l-28 15q-8 2 -4 16q4 12 16 39t41 69t63.5 78.5t86 63t106.5 26.5q102 0 121 -122l30 -185h13 q92 172 149 230q27 27 38 37t44 25t68 15q82 0 82 -81q0 -94 -56 -224q-6 -14 -20 -8l-25 8q-16 6 -14 17q10 39 14 63.5t3 41t-9 23.5t-22 7q-31 0 -98.5 -69.5t-139.5 -166.5l78 -323q12 -53 51 -53q20 0 65.5 56t55.5 83q2 8 18 2l25 -12q12 -6 6 -21q-70 -129 -137 -180 q-76 -57 -164 -57q-111 0 -137 129l-43 200l-8 2l-72 -113q-29 -44 -74 -101.5t-88 -87t-82 -29.5q-90 -1 -90 81z" />
<glyph unicode="y" horiz-adv-x="911" d="M-209 -500q0 53 32 89t70.5 36t71.5 -37q33 -33 66 -32q39 0 82 28q102 63 190 199q28 40 28 111q0 24 -3 51q-2 8 -37 332.5t-45 384.5q-10 49 -37 49q-29 0 -57.5 -46.5t-38.5 -91.5q-6 -14 -19 -10l-31 6q-10 4 -4 29q4 16 11.5 38.5t32 68t54 80t82 62t113.5 27.5 q63 0 96 -53t41 -190q16 -230 16 -390q0 -93 -5 -163l24 -2q27 47 87.5 184t74.5 203q16 82 16 137q0 29 -18 89.5t-18 86.5q0 39 28.5 68.5t81.5 29.5q68 0 95.5 -39.5t27.5 -117.5q0 -53 -45 -174t-104 -234q-96 -180 -243 -396t-267 -337q-178 -184 -310 -184 q-68 0 -103.5 30.5t-35.5 77.5z" />
<glyph unicode="z" horiz-adv-x="995" d="M25 39q0 63 61 117.5t127 72.5l412 389l-9 13q-35 -5 -63 -6q-36 0 -64 9q-49 15 -94 62l-19 21q-17 18 -26 25l-22 20q-14 12 -26.5 17t-22.5 5q-14 0 -24.5 -9t-10.5 -19q0 -23 20 -37q43 -31 41 -82q2 -33 -24.5 -60.5t-57.5 -27.5q-53 0 -86 31.5t-33 89.5 q0 82 71 143t194 61q158 0 258 -65q80 -51 104 -51q29 0 51 69q12 35 44 65t77 30q31 0 50.5 -17.5t19.5 -42.5q0 -51 -58.5 -112.5t-132.5 -104.5l-411 -383l4 -14h18q52 0 89 -10q44 -12 61.5 -26.5t46.5 -45.5q12 -12 31 -33l27 -31l23 -24q13 -14 21 -21.5t18.5 -14.5 t18.5 -10t16 -3q31 0 52.5 17t21.5 40q0 29 -22 61q-33 47 -33 101q0 35 28.5 58.5t69.5 23.5q104 0 105 -129q0 -106 -77 -184t-251 -78q-102 0 -157.5 20.5t-104.5 67.5l-23 23l-25 26l-22 19q-12 11 -22.5 16.5t-18.5 5.5q-49 0 -69 -72q-23 -76 -109 -76q-31 0 -47 21.5 t-16 48.5z" />
<glyph unicode="{" horiz-adv-x="634" d="M119 -76q0 121 78 285l23 48l25 51q7 15 18 42t15.5 47.5t4.5 40.5q0 78 -21 105q-18 25 -78 30q-27 4 -26.5 39t37 35t94.5 25q33 16 60.5 52t31.5 83q6 57 2 171t4 189q18 170 142 273.5t280 132.5q41 8 94 8q35 0 35 -29q0 -43 -25 -43q-20 0 -65 -8 q-104 -20 -161.5 -95t-78.5 -230q-8 -55 -16 -166t-17 -144q-31 -127 -157 -196l-31 -16q-18 -9 -29 -15l-21 -13q-11 -7 -16.5 -14.5t-5.5 -15.5q0 -6 4.5 -11t12.5 -12.5t16 -12.5t19.5 -11t15.5 -10q76 -51 76 -138q0 -27 -10.5 -64.5t-20.5 -65.5l-29 -74l-24 -62 q-43 -106 -43 -225q0 -244 131 -275q35 -8 72 -8q14 0 14 -43q0 -29 -14 -28q-41 0 -93 6q-47 6 -97 26.5t-103.5 59.5t-88 111.5t-34.5 164.5z" />
<glyph unicode="|" horiz-adv-x="512" d="M279 -512v2054q0 18 12 19h112q14 0 15 -25v-2048q0 -20 -10 -20h-117q-12 0 -12 20z" />
<glyph unicode="}" horiz-adv-x="634" d="M-166 -416q0 43 25 43q20 0 65 8q104 20 161.5 95t78.5 231q8 55 16 166t17 143q31 127 157 197l31 15q18 9 29 16l21 13q11 7 16.5 14t5.5 16q0 16 -68 55q-76 43 -76 139q0 27 10.5 65t20.5 65l29 75q18 47 24 61q43 106 43 226q0 121 -35.5 191.5t-95.5 84.5 q-27 6 -71 6q-14 0 -15 41q0 31 17 31q39 0 90 -6q47 -6 97 -26.5t103.5 -59.5t88 -111.5t34.5 -165.5q0 -121 -78 -284l-23 -48l-25 -52q-7 -15 -18 -41.5t-15.5 -47t-4.5 -41.5q0 -72 21 -98q23 -31 78 -37q27 -4 26 -33q0 -41 -36 -41q-49 0 -74 -16q-102 -47 -113 -143 q-6 -57 -2 -171t-4 -190q-18 -170 -142 -273.5t-280 -131.5q-41 -8 -94 -8q-35 -1 -35 28z" />
<glyph unicode="~" d="M127 309q0 166 65.5 252t167.5 86q61 0 140 -43l86 -51q2 -2 19.5 -13.5t25.5 -15.5l23 -11q15 -7 29.5 -10t31.5 -3q55 0 74.5 40t19.5 134h129q0 -174 -59.5 -255t-155.5 -81q-74 0 -170 53l-82 49q-74 43 -115 43q-51 -8 -75.5 -47t-24.5 -127h-129z" />
<glyph unicode="&#xa1;" horiz-adv-x="546" d="M-125 -518q0 37 29 106q4 8 60 132l121 266l122 267q57 126 59 130q8 16 39 16q35 0 25 -43q-12 -51 -86 -448l-76 -408q-25 -109 -164 -108q-63 0 -96 26.5t-33 63.5zM262 735q0 59 38 99t95 40q55 0 90 -40.5t35 -88.5q0 -61 -38 -102t-101 -41q-37 0 -78 33.5 t-41 99.5z" />
<glyph unicode="&#xa2;" d="M174 483q0 109 57.5 228.5t179 226t279.5 143.5l58 228q4 14 14 12l53 -12q14 -2 10 -19l-47 -194q14 2 41 2q61 0 110.5 -32t49.5 -99q0 -43 -28.5 -70t-65.5 -27q-47 0 -68 48q-10 25 -17 36t-19.5 21t-30.5 12l-154 -649q86 -14 215 63q23 14 27 0l18 -30 q6 -16 -12 -31q-127 -92 -275 -111l-59 -243q-4 -20 -18 -17l-50 13q-18 6 -10 28l53 215q-311 4 -311 258zM420 520q0 -59 28.5 -102t73.5 -60l146 627q-59 -20 -127 -104q-55 -74 -88 -178.5t-33 -182.5z" />
<glyph unicode="&#xa3;" d="M-41 61q0 39 63.5 104.5t127.5 84.5q35 37 79 188h-137q-10 0 -15 4t-3 11l8 55q4 12 20 12h148q6 16 52 194.5t77 256.5q59 154 183 252t302 98q109 0 170.5 -49t61.5 -101q0 -45 -29 -69.5t-59 -26.5q-47 -2 -76 18.5t-49 75.5q-29 74 -82 74q-45 0 -86 -69.5 t-92 -243.5q-29 -98 -98.5 -236.5t-94.5 -173.5h256q23 0 19 -12l-11 -55q-2 -14 -24 -15h-295q-12 -20 -59.5 -79.5t-69.5 -84.5l4 -14q162 16 258 -15.5t190 -131.5q57 -61 107 -62q23 0 45 16.5t22 38.5q0 20 -7 27.5t-29 7.5q-33 0 -57.5 22.5t-24.5 53.5 q0 41 26.5 71.5t75.5 30.5q59 0 102 -40.5t43 -110.5q0 -72 -71.5 -135.5t-229.5 -63.5q-205 0 -317 125q-6 8 -20.5 23.5t-18.5 20.5t-15.5 16.5t-16.5 15.5l-14 11q-9 7 -15.5 10.5t-16.5 6.5t-19 3h-20q-20 -53 -63 -119q-63 -92 -127 -92q-78 -1 -78 71z" />
<glyph unicode="&#xa4;" d="M88 248q-12 12 2 24l168 162q-76 80 -80 207q8 150 86 233l-170 152q-18 18 -4 35l70 74q10 12 24 -2l181 -170q82 55 223 55q113 0 194 -55l172 167q12 12 23 0l67 -67q14 -14 5 -25l-164 -153q35 -39 56.5 -102.5t21.5 -120.5q0 -143 -80 -230l172 -166q8 -8 -2 -22 l-68 -72q-10 -14 -29 0l-176 166q-78 -57 -219 -57q-131 0 -213 63l-168 -174q-10 -12 -24 2zM369 649q0 -92 56 -158.5t146 -66.5q98 0 150.5 61.5t52.5 163.5q0 98 -52 161.5t-147 63.5q-100 0 -153 -64.5t-53 -160.5z" />
<glyph unicode="&#xa5;" d="M104 1237l9 43q2 16 18 16q6 0 32.5 -1l76 -3t112.5 -2q66 0 119 2t83 3t36 1q20 0 18 -18l-4 -41q-2 -14 -18 -14h-29q-63 0 -45 -90l98 -482q2 -18 15.5 -21t21.5 13q252 420 271 467q20 57 3.5 85t-61.5 28h-55q-18 0 -14 18l4 39q2 16 22 16q2 0 77 -3t146 -3 q61 0 124 3t65 3q20 0 18 -18l-6 -37q-2 -18 -14 -18h-37q-61 0 -119 -72q-33 -37 -188.5 -274.5t-180.5 -280.5h236q10 0 14 -3t2 -9l-10 -49q0 -12 -24 -13h-252l-35 -121h282q14 0 13 -14l-8 -47q-2 -12 -29 -12h-275l-32 -152q-23 -109 49 -108h51q18 0 14 -17l-6 -41 q-4 -16 -20 -16q-2 0 -72 3t-145 3q-80 0 -141 -2l-89 -3q-29 -1 -32 -1q-18 0 -17 18l8 39q0 16 17 17h45q92 0 119 100l41 160h-267q-12 0 -10 12l6 47q0 14 19 14h260l22 121h-260q-8 0 -13 4t-3 9l4 49q2 12 20 12h234l-10 39l-162 516q-10 31 -34 51.5t-50 20.5h-45 q-15 0 -13 14z" />
<glyph unicode="&#xa6;" horiz-adv-x="512" d="M279 -338v676q0 20 18 20h109q12 0 12 -20v-676q0 -20 -19 -20h-108q-12 0 -12 20zM279 686v678q0 18 12 18h112q14 0 15 -24v-672q0 -20 -19 -20h-108q-12 0 -12 20z" />
<glyph unicode="&#xa7;" d="M8 -174q0 96 94 96q76 0 111 -69q29 -53 92 -54q55 0 126 67.5t71 178.5q-8 66 -51 134.5t-144 174.5q-43 47 -66.5 77t-50 98.5t-22.5 144.5q0 106 85 211.5t202 152.5q37 164 161 267q121 98 314 98q82 0 128 -36t46 -87q0 -88 -100 -88q-76 0 -113 84q-20 49 -70 49 q-59 0 -113.5 -67.5t-54.5 -151.5q0 -59 30 -109.5t140 -156.5q47 -47 75 -79t58.5 -105.5t30.5 -157.5q0 -127 -84 -234.5t-209 -157.5q-27 -121 -67.5 -188.5t-132.5 -126.5q-121 -78 -314 -78q-76 0 -124 31t-48 82zM358 745q0 -72 41 -124q27 -35 117 -133.5t130 -167 t40 -138.5q98 57 98 228q0 90 -75 194q-16 23 -86 89.5t-115 132t-45 132.5q-105 -43 -105 -213z" />
<glyph unicode="&#xa8;" horiz-adv-x="696" d="M262 1184q0 33 25.5 62.5t83.5 29.5q41 0 69.5 -26.5t28.5 -73.5q0 -43 -27.5 -69t-70.5 -26t-76 24t-33 79zM623 1184q0 33 25.5 62.5t82.5 29.5q41 0 69.5 -26.5t28.5 -73.5q0 -43 -27.5 -69t-70.5 -26t-75.5 24t-32.5 79z" />
<glyph unicode="&#xa9;" horiz-adv-x="1597" d="M176 686q0 305 207 511t504 206q311 0 510.5 -199.5t199.5 -517.5q0 -307 -196.5 -512t-513.5 -205q-319 0 -515 205t-196 512zM289 686q0 -168 57 -297t148.5 -199.5t191.5 -105.5t201 -35q158 0 278.5 59.5t187 155.5t99.5 203.5t33 218.5q0 162 -58.5 291 t-149.5 200.5t-191.5 108.5t-198.5 37q-256 0 -427 -177t-171 -460zM461 692q0 178 125 309q117 117 305 117q104 0 201 -51q37 -16 43 8l6 21q4 10 14 12h31q12 0 14 -14l29 -242q2 -20 -6 -23l-39 -8q-12 -2 -19 13q-47 100 -88 137q-78 78 -178 78q-111 0 -174 -101.5 t-63 -226.5q4 -174 94 -272q82 -90 205 -91q139 0 251 134q12 12 23 6l29 -23q8 -8 -2 -20q-141 -197 -361 -197q-197 0 -309 109q-131 126 -131 325z" />
<glyph unicode="&#xaa;" horiz-adv-x="751" d="M104 635q0 141 132.5 308t283.5 167q29 0 52.5 -12.5t28.5 -17.5l26 -27l26 39q6 8 25 8h106q25 0 11 -29q-33 -72 -95 -252q-57 -158 -57 -186q0 -20 19 -21q31 0 90 72q8 14 22 4l25 -16q10 -6 -2 -23q-14 -20 -43 -47t-94.5 -57.5t-139.5 -30.5q-57 0 -57 43 q0 31 51 154l-20 6q-131 -203 -271 -203q-47 0 -83 34t-36 87zM283 674q0 -55 41 -56q27 0 102.5 91.5t108.5 154.5q35 70 34 115q0 68 -77 68q-61 0 -135 -137.5t-74 -235.5z" />
<glyph unicode="&#xab;" horiz-adv-x="768" d="M90 475q0 4 10 14l318 297q8 8 12 8.5t10 -6.5l23 -22q8 -8 8 -14q0 -2 -10 -19l-146 -248l86 -252q2 -4 4.5 -7t3.5 -5t1 -4q0 -6 -9 -14l-24 -23q-4 -4 -8 -4q-8 0 -15 8l-256 279q-8 8 -8 12zM397 475q0 4 11 14l317 297q8 8 12 8.5t11 -6.5l22 -22q8 -8 8 -14 q0 -2 -10 -19l-145 -248l86 -252q2 -4 4 -7t3 -5t1 -4q0 -6 -8 -14l-25 -23q-4 -4 -8 -4q-8 0 -14 8l-256 279q-9 8 -9 12z" />
<glyph unicode="&#xac;" d="M147 602v148h814v-500h-158v352h-656z" />
<glyph unicode="&#xad;" horiz-adv-x="847" d="M125 444v113q0 20 18 21h660q18 0 18 -17v-112q0 -18 -18 -19h-662q-16 0 -16 14z" />
<glyph unicode="&#xae;" d="M188 956q0 190 132.5 318.5t330.5 128.5q207 0 335 -124t128 -323q0 -193 -125 -319.5t-338 -126.5t-338 126.5t-125 319.5zM283 963q0 -102 34.5 -179t91 -118t118 -61.5t124.5 -20.5q193 0 281 106.5t88 265.5q0 100 -35 177t-92 117t-117.5 59.5t-124.5 19.5 q-162 0 -265 -97t-103 -269zM424 715v22q0 6 4 6h18q20 0 29.5 7.5t9.5 29.5v187l2 71v111q-2 35 -43 35h-14q-4 0 -4 6v29q0 6 6 6q2 0 45 -2t51 -2q6 0 64.5 2t66.5 2q102 0 152 -43q39 -33 39 -86q0 -63 -42 -100.5t-93 -45.5v-4q8 0 13 -4t10 -10t7 -8q4 -4 19.5 -25.5 t30 -44.5t16.5 -25q41 -61 66 -75q18 -10 57 -11q8 0 8 -8v-22q0 -6 -8 -6q-2 0 -12.5 1t-23.5 1h-24q-10 0 -38.5 -1t-51.5 -1q-12 6 -32 41q-6 8 -56 81q-4 8 -22.5 38t-20.5 32q-20 31 -47 31q-16 0 -20 -2v-31v-125q4 -29 26 -29h23q4 0 4 -6v-24q0 -6 -6 -6q-2 0 -44 1 t-60.5 1t-57.5 -1t-41 -1q-6 0 -6 8zM586 969q8 -2 41 -2q63 0 89.5 40t26.5 76q0 49 -41 76q-31 25 -75 25q-16 0 -41 -4v-211z" />
<glyph unicode="&#xaf;" horiz-adv-x="593" d="M246 1059v92q0 12 20 12h410q20 0 20 -14v-90q0 -14 -18 -15h-416q-16 1 -16 15z" />
<glyph unicode="&#xb0;" horiz-adv-x="512" d="M219 1217q4 76 65.5 131t161.5 55q102 0 157.5 -51.5t55.5 -134.5q0 -78 -60 -134.5t-159 -56.5q-104 0 -160.5 51.5t-60.5 139.5zM342 1217q0 -41 28.5 -73t69.5 -32q45 0 73 32t28 77q0 35 -28 65.5t-69 30.5q-45 0 -73.5 -30.5t-28.5 -69.5z" />
<glyph unicode="&#xb1;" d="M127 16v148h813v-148h-813zM127 602v148h328v268h157v-268h328v-148h-328v-291h-157v291h-328z" />
<glyph unicode="&#xb2;" horiz-adv-x="688" d="M80 813.5q0 20.5 16 32.5q4 4 52 42l64 50l62 51q47 39 66.5 59.5t57.5 57.5t56 62l39 59q22 33 30.5 62.5t8.5 58.5q0 49 -27.5 79.5t-78.5 30.5q-45 0 -84 -25.5t-59 -60.5q-14 -20 -29 -16l-23 12q-10 6 -6 18q27 68 98.5 133.5t190.5 65.5q211 0 215 -199 q0 -41 -14.5 -83.5t-46.5 -81.5l-62 -71q-29 -32 -77 -68l-72 -53l-70 -46t-47 -31l-4 -12h176q49 0 77.5 17.5t55.5 60.5q10 16 21 6l22 -14q8 -10 2 -17q-18 -33 -47 -104.5t-37 -106.5q-2 -12 -20 -12q-14 0 -27 14q-8 8 -90 9h-358q-31 0 -31 20.5z" />
<glyph unicode="&#xb3;" horiz-adv-x="688" d="M100 915q0 80 64 80q74 0 69 -92q-2 -18 20.5 -37.5t59.5 -19.5q74 0 128.5 63.5t54.5 149.5q0 119 -93 139q-23 4 -22.5 22.5t20.5 22.5q72 12 117 51t45 95q0 35 -23.5 62.5t-72.5 27.5q-72 0 -135 -76q-12 -12 -25 -6l-22 18q-4 6 2 21q82 150 280 149q88 0 135.5 -39 t47.5 -86q0 -139 -193 -215q137 -51 137 -176q0 -123 -113.5 -207t-281.5 -84q-92 0 -145.5 42t-53.5 95z" />
<glyph unicode="&#xb4;" horiz-adv-x="491" d="M205 989q-4 4 8 17l227 211q55 49 99 49q37 0 59.5 -33t12 -74t-57.5 -61l-317 -131q-12 -6 -17 2z" />
<glyph unicode="&#xb5;" d="M-218 -422.5q-9 23.5 19 53.5q20 20 44 58.5t42.5 74t42 90t34.5 84.5l32 81q20 52 22 59l150 387q80 207 80 248q0 16 -8.5 53t-8.5 51q10 57 140 57q51 0 83.5 -28.5t32.5 -67.5q0 -76 -120 -350q-94 -213 -95 -250q0 -43 54 -43q25 0 126 120t144 191q57 94 92 191 q49 133 49 192q0 23 33 34t125 11q53 0 68.5 -18t15.5 -53q0 -18 -18.5 -69.5t-57.5 -151t-69 -195.5q-78 -244 -78 -246q0 -14 9 -23t21 -9q23 0 64 40.5t63 71.5q6 14 19 2l22 -18q8 -8 2 -23l-18 -23q-12 -15 -45 -49t-67.5 -60.5t-85 -48t-99.5 -21.5q-111 0 -111 98 q0 18 20.5 74.5t46.5 118t28 65.5l-25 12q-27 -45 -65.5 -97t-101 -125t-132.5 -115t-127 -31l-43 -119l-80 -223q-29 -84 -221 -84q-39 0 -48 23.5z" />
<glyph unicode="&#xb6;" d="M168 703.5q-16 82.5 20 195.5q33 113 128.5 203t229.5 145.5t261 87t268 49.5q150 18 191 19q16 0 14 -14l-14 -56q-4 -14 -21 -16q-6 0 -96 -14l-412 -1573q-2 -16 -18 -17h-70q-16 0 -8 25l406 1556q-82 -14 -121 -24l-396 -1528q-8 -29 -20 -29h-76q-10 0 -2 33 l176 674q-70 0 -137.5 13t-136 46t-109.5 87.5t-57 137z" />
<glyph unicode="&#xb7;" horiz-adv-x="512" d="M197 707q0 55 38.5 100t106.5 45q76 0 114 -47t38 -105q0 -61 -41 -102t-111 -41q-63 0 -104 41t-41 109z" />
<glyph unicode="&#xb8;" horiz-adv-x="542" d="M-133 -414q0 33 37 33q57 0 104 29.5t47 66.5q0 63 -78 97l150 188h90l-113 -145q145 -43 146 -127q0 -59 -64.5 -102.5t-139.5 -60t-140 -16.5q-39 0 -39 37z" />
<glyph unicode="&#xb9;" horiz-adv-x="688" d="M147 797l9 45q4 10 14 10h45q61 0 90 45q6 8 45 131l86 270q29 86 29 97q0 16 -16 16q-6 0 -66 -16l-72 -21q-14 -8 -18 8l-12 31q-2 8 8 14l356 142q39 16 57 16q23 0 23 -16.5t-10 -40.5q-41 -106 -105 -301l-59 -183q-47 -141 -47 -153q0 -39 45 -39h55q14 0 10 -10 l-6 -45q-2 -10 -12 -11l-84 5q-84 2 -113 2q-37 0 -95 -1t-103 -3.5t-47 -2.5q-7 1 -7 11z" />
<glyph unicode="&#xba;" horiz-adv-x="714" d="M152 768q0 147 100 248q55 55 112.5 74.5t139.5 19.5q98 0 160.5 -63.5t62.5 -141.5q0 -195 -111 -305q-84 -86 -233 -86q-96 0 -163.5 63.5t-67.5 190.5zM293 670q0 -29 20.5 -49.5t51.5 -20.5q82 0 154.5 143.5t72.5 204.5q0 33 -20.5 52.5t-55.5 19.5q-90 0 -180 -189 q-43 -85 -43 -161z" />
<glyph unicode="&#xbb;" horiz-adv-x="768" d="M37 219q0 2 10 19l146 247l-87 252q-2 4 -4 7.5t-3 5.5t-1 4q0 6 8 14l25 23q4 4 8 4q8 0 15 -9l256 -278q8 -8 8 -12t-10 -15l-318 -297q-8 -8 -12 -8t-10 6l-23 23q-8 8 -8 14zM344 219q0 2 10 19l146 247l-86 252q-2 4 -4 7.5t-3 5.5t-1 4q0 6 8 14l24 23q4 4 8 4 q8 0 15 -9l256 -278q8 -8 8 -12t-10 -15l-318 -297q-8 -8 -12 -8t-10 6l-23 23q-8 8 -8 14z" />
<glyph unicode="&#xbc;" horiz-adv-x="1536" d="M100 532l9 46q4 10 14 10h45q61 0 90 45q12 18 45 131l86 270q29 86 29 96q0 16 -16.5 16.5t-65.5 -16.5l-72 -20q-14 -8 -18 8l-13 31q-2 8 9 14l356 142q39 16 57 16q23 0 23 -16q0 -14 -10 -41q-41 -106 -105 -301l-59 -183q-47 -141 -47 -153q0 -39 45 -39h55 q16 0 10 -10l-6 -46q-2 -10 -12 -10l-84 2q-84 4 -113 4q-37 0 -95 -2t-103 -3t-48 -1q-6 0 -6 10zM344 27q0 10 10 24l828 1262q6 8 18 8q4 0 17 -6l53 -33q10 -4 10 -12q0 -12 -8 -23l-828 -1261q-10 -16 -20 -17q-4 0 -16 6l-54 37q-10 11 -10 15zM764 209q0 27 41 59 l622 506q23 18 50 19q16 0 24 -16.5t0 -37.5l-174 -450h105q14 0 6 -19l-33 -77q-8 -18 -19 -19h-102l-55 -154q-8 -20 -23 -20h-147q-23 0 -10 29l57 145h-297q-45 0 -45 35zM942 291q2 -2 4 -2h201l86 213q8 20 -2 26.5t-27 -6.5l-254 -209q-22 -16 -8 -22z" />
<glyph unicode="&#xbd;" horiz-adv-x="1536" d="M100 532l9 46q4 10 14 10h45q61 0 90 45q12 18 45 131l86 270q29 86 29 96q0 16 -16.5 16.5t-65.5 -16.5l-72 -20q-14 -8 -18 8l-13 31q-2 8 9 14l356 142q39 16 57 16q23 0 23 -16q0 -14 -10 -41q-41 -106 -105 -301l-59 -183q-47 -141 -47 -153q0 -39 45 -39h55 q16 0 10 -10l-6 -46q-2 -10 -12 -10l-84 2q-84 4 -113 4q-37 0 -95 -2t-103 -3t-48 -1q-6 0 -6 10zM338 27q0 10 10 24l828 1262q6 8 18 8q4 0 16 -6l54 -33q10 -4 10 -12q0 -12 -8 -23l-828 -1261q-10 -16 -20 -17q-4 0 -17 6l-53 37q-10 11 -10 15zM842 20.5 q0 20.5 16 32.5q4 4 52 42l64 50l62 52q47 39 66.5 59l57.5 57t55 63l39 58q22 33 31 62.5t9 58.5q0 49 -27.5 80t-78.5 31q-45 0 -84 -26t-60 -60q-14 -20 -28 -17l-23 12q-10 6 -6 19q27 68 98.5 133.5t190.5 65.5q211 0 215 -199q0 -41 -14.5 -84t-46.5 -82l-62 -71 q-29 -32 -77 -67l-72 -53l-70 -46t-47 -31l-4 -13h176q49 0 77.5 17.5t55.5 60.5q10 16 20 6l23 -14q8 -8 2 -16q-18 -33 -47 -104.5t-37 -106.5q-2 -12 -20 -13q-14 0 -27 15q-8 8 -90 8h-359q-30 0 -30 20.5z" />
<glyph unicode="&#xbe;" horiz-adv-x="1536" d="M84 651q0 80 63 80q74 0 70 -92q-2 -18 20.5 -37.5t59.5 -19.5q74 0 128 63.5t54 149.5q0 119 -92 139q-23 4 -22.5 22.5t20.5 22.5q72 12 117 51t45 94q0 35 -23.5 62.5t-72.5 27.5q-72 0 -136 -75q-12 -12 -24 -6l-23 18q-4 6 2 20q82 150 281 150q88 0 135 -39t47 -86 q0 -139 -192 -215q137 -51 137 -176q0 -123 -113.5 -207t-281.5 -84q-92 0 -145.5 42t-53.5 95zM383 27q0 10 10 24l828 1262q6 8 18 8q4 0 16 -6l54 -33q10 -4 10 -12q0 -12 -8 -23l-828 -1261q-10 -16 -20 -17q-4 0 -17 6l-53 37q-10 11 -10 15zM795 209q0 27 41 59 l622 506q23 18 49 19q16 0 24.5 -16.5t0.5 -37.5l-174 -450h104q14 0 6 -19l-32 -77q-10 -18 -19 -19h-102l-55 -154q-8 -20 -23 -20h-147q-23 0 -11 29l58 145h-297q-45 0 -45 35zM973 291q2 -2 4 -2h201l86 213q8 20 -2.5 26.5t-26.5 -6.5l-254 -209q-22 -16 -8 -22z" />
<glyph unicode="&#xbf;" horiz-adv-x="870" d="M-4 -340q0 197 108.5 321.5t294.5 178.5q236 68 236 145q0 74 -119 74q-111 0 -180 -70q-10 -10 -19 2l-20 23q-8 8 -4 16q27 43 91.5 90t137.5 47q96 0 156.5 -54t60.5 -163q0 -209 -309 -364q-68 -35 -100.5 -53.5t-72.5 -52t-55.5 -73.5t-15.5 -96q0 -53 41 -105 t127 -52q98 0 164 49t66 127q0 41 -17.5 60.5t-38.5 19.5q-25 0 -32 -19q10 -25 10 -49q0 -43 -28.5 -73.5t-82.5 -30.5q-43 0 -67.5 27.5t-24.5 72.5q0 78 57.5 123t133.5 45q78 0 133 -44t55 -128q0 -96 -94 -179t-250 -83q-100 0 -174 30.5t-106.5 76.5t-47 86t-14.5 75z M481 739q0 53 35 94t92.5 41t93 -38.5t35.5 -96.5q0 -45 -34.5 -85t-90.5 -40q-53 0 -92 33t-39 92z" />
<glyph unicode="&#xc0;" horiz-adv-x="1345" d="M-178 12l8 45q2 16 14 17h33q49 0 119 40t121 101l962 1137q16 18 47 18q37 0 158 16q27 4 57.5 10.5t38.5 6.5q27 0 21 -21l-305 -1136q-23 -76 -23 -115q0 -25 21.5 -41t52.5 -16h43q8 0 13 -4t3 -11l-6 -47q-4 -18 -24 -18q-6 0 -41 1l-100 3q-65 2 -142 2 q-76 0 -136 -2l-92 -3q-32 -1 -42 -1q-25 0 -21 20l8 43q4 16 17 17h41q55 0 86.5 29.5t62.5 134.5l109 376h-342l-201 -260q-127 -166 -127 -217q0 -63 84 -63h51q16 0 15 -21l-7 -43q-4 -16 -22 -16q-4 0 -40 1l-103 3q-67 2 -146 2q-68 0 -125 -2l-88 -3q-31 -1 -37 -1 q-18 0 -16 18zM639 688h309l152 510q6 20 -11.5 26.5t-29.5 -10.5zM983 1706q-6 45 24.5 78t65.5 33q47 0 90 -48l228 -243q10 -6 4 -17l-15 -20q-4 -4 -14 0l-317 145q-60 27 -66 72z" />
<glyph unicode="&#xc1;" horiz-adv-x="1345" d="M-178 12l8 45q2 16 14 17h33q49 0 119 40t121 101l962 1137q16 18 47 18q37 0 158 16q27 4 57.5 10.5t38.5 6.5q27 0 21 -21l-305 -1136q-23 -76 -23 -115q0 -25 21.5 -41t52.5 -16h43q8 0 13 -4t3 -11l-6 -47q-4 -18 -24 -18q-6 0 -41 1l-100 3q-65 2 -142 2 q-76 0 -136 -2l-92 -3q-32 -1 -42 -1q-25 0 -21 20l8 43q4 16 17 17h41q55 0 86.5 29.5t62.5 134.5l109 376h-342l-201 -260q-127 -166 -127 -217q0 -63 84 -63h51q16 0 15 -21l-7 -43q-4 -16 -22 -16q-4 0 -40 1l-103 3q-67 2 -146 2q-68 0 -125 -2l-88 -3q-31 -1 -37 -1 q-18 0 -16 18zM639 688h309l152 510q6 20 -11.5 26.5t-29.5 -10.5zM1151 1513q-4 10 6 21l270 233q41 37 82 37q47 0 75 -37.5t16.5 -84t-62.5 -64.5l-358 -127q-12 -6 -17 2z" />
<glyph unicode="&#xc2;" horiz-adv-x="1345" d="M-178 12l8 45q2 16 14 17h33q49 0 119 40t121 101l962 1137q16 18 47 18q37 0 158 16q27 4 57.5 10.5t38.5 6.5q27 0 21 -21l-305 -1136q-23 -76 -23 -115q0 -25 21.5 -41t52.5 -16h43q8 0 13 -4t3 -11l-6 -47q-4 -18 -24 -18q-6 0 -41 1l-100 3q-65 2 -142 2 q-76 0 -136 -2l-92 -3q-32 -1 -42 -1q-25 0 -21 20l8 43q4 16 17 17h41q55 0 86.5 29.5t62.5 134.5l109 376h-342l-201 -260q-127 -166 -127 -217q0 -63 84 -63h51q16 0 15 -21l-7 -43q-4 -16 -22 -16q-4 0 -40 1l-103 3q-67 2 -146 2q-68 0 -125 -2l-88 -3q-31 -1 -37 -1 q-18 0 -16 18zM639 688h309l152 510q6 20 -11.5 26.5t-29.5 -10.5zM1016 1522q-2 4 4 14l301 301q20 25 35 -4l162 -303q6 -10 -5 -17l-20 -18q-8 -6 -23 4l-163 109l-258 -117q-10 -4 -19 6z" />
<glyph unicode="&#xc3;" horiz-adv-x="1345" d="M-178 12l8 45q2 16 14 17h33q49 0 119 40t121 101l962 1137q16 18 47 18q37 0 158 16q27 4 57.5 10.5t38.5 6.5q27 0 21 -21l-305 -1136q-23 -76 -23 -115q0 -25 21.5 -41t52.5 -16h43q8 0 13 -4t3 -11l-6 -47q-4 -18 -24 -18q-6 0 -41 1l-100 3q-65 2 -142 2 q-76 0 -136 -2l-92 -3q-32 -1 -42 -1q-25 0 -21 20l8 43q4 16 17 17h41q55 0 86.5 29.5t62.5 134.5l109 376h-342l-201 -260q-127 -166 -127 -217q0 -63 84 -63h51q16 0 15 -21l-7 -43q-4 -16 -22 -16q-4 0 -40 1l-103 3q-67 2 -146 2q-68 0 -125 -2l-88 -3q-31 -1 -37 -1 q-18 0 -16 18zM639 688h309l152 510q6 20 -11.5 26.5t-29.5 -10.5zM954 1567q23 70 74 129t96 59q49 0 179 -31q68 -16 122 -16q70 0 105 59q6 14 16 9l31 -17q12 -6 -4 -43q-29 -63 -74 -110t-94 -47q-66 0 -156 22q-92 25 -145 25q-27 0 -57.5 -20.5t-47.5 -49.5 q-8 -12 -16 -6l-27 16q-6 7 -2 21z" />
<glyph unicode="&#xc4;" horiz-adv-x="1345" d="M-178 12l8 45q2 16 14 17h33q49 0 119 40t121 101l962 1137q16 18 47 18q37 0 158 16q27 4 57.5 10.5t38.5 6.5q27 0 21 -21l-305 -1136q-23 -76 -23 -115q0 -25 21.5 -41t52.5 -16h43q8 0 13 -4t3 -11l-6 -47q-4 -18 -24 -18q-6 0 -41 1l-100 3q-65 2 -142 2 q-76 0 -136 -2l-92 -3q-32 -1 -42 -1q-25 0 -21 20l8 43q4 16 17 17h41q55 0 86.5 29.5t62.5 134.5l109 376h-342l-201 -260q-127 -166 -127 -217q0 -63 84 -63h51q16 0 15 -21l-7 -43q-4 -16 -22 -16q-4 0 -40 1l-103 3q-67 2 -146 2q-68 0 -125 -2l-88 -3q-31 -1 -37 -1 q-18 0 -16 18zM639 688h309l152 510q6 20 -11.5 26.5t-29.5 -10.5zM952 1645q0 35 27 66.5t92 31.5q45 0 76 -28.5t31 -78.5q0 -47 -31 -75.5t-76 -28.5q-119 0 -119 113zM1358 1645q0 35 26.5 66.5t92.5 31.5q45 0 75.5 -28.5t30.5 -78.5q0 -47 -30.5 -75.5t-75.5 -28.5 q-119 0 -119 113z" />
<glyph unicode="&#xc5;" horiz-adv-x="1345" d="M-178 12l8 45q2 16 14 17h33q49 0 119 40t121 101l962 1137q16 18 47 18q113 0 158 6q27 4 57.5 10.5t40.5 6.5q25 0 19 -21l-305 -1126q-23 -76 -23 -115q0 -25 21.5 -41t52.5 -16h43q8 0 13 -4t3 -11l-6 -47q-4 -18 -24 -18q-6 0 -41 1l-100 3q-65 2 -142 2 q-76 0 -136 -2l-92 -3q-32 -1 -42 -1q-25 0 -21 20l8 43q4 16 17 17h41q55 0 86.5 29.5t62.5 134.5l109 376h-342l-201 -260q-127 -166 -127 -217q0 -63 84 -63h51q16 0 15 -21l-7 -43q-4 -16 -22 -16q-4 0 -40 1l-103 3q-67 2 -146 2q-68 0 -125 -2l-88 -3q-31 -1 -37 -1 q-18 0 -16 18zM639 688h309l152 510q6 20 -11.5 26.5t-29.5 -10.5zM1042 1655q0 88 74 139t176.5 51t169 -45t66.5 -129q0 -82 -72 -131t-178 -49q-102 0 -169 43t-67 121zM1180 1667q0 -57 31.5 -86t74.5 -29q41 0 73 29t32 88q0 61 -34 88t-75 27q-33 0 -67.5 -32 t-34.5 -85z" />
<glyph unicode="&#xc6;" horiz-adv-x="1933" d="M-272 14l8 43q2 16 16 17h37q123 0 254 145l936 1036q12 14 7 28.5t-23 14.5h-50q-18 0 -12 17l17 53q4 10 22 10l96 -2q98 -4 189 -4q174 0 321.5 2t229.5 3t94 1q23 0 30 -7t13 -32l65 -280q2 -10 -8 -17l-26 -14q-12 -6 -29 10l-227 246q-12 14 -37 14h-275l-192 -596 h182q66 0 122 33t116 135q10 16 20 15l39 -13q14 -4 10 -14q-80 -184 -108 -407q-2 -14 -19 -15l-39 2q-10 0 -12 21q-10 92 -65.5 132t-157.5 40h-109l-174 -557h393q55 0 112.5 25.5t117 81t89.5 87t83 94.5q12 14 24 9l27 -19q10 -6 4 -26l-104 -297q-8 -23 -16.5 -29 t-28.5 -6q-10 0 -55.5 1t-132.5 2t-159 1q-92 0 -280.5 1t-263.5 1q-61 0 -129 -1t-78 -1q-16 0 -29.5 -1t-19.5 -2t-11 -1q-25 0 -20 22l6 41q2 16 17 17h75q104 0 138 110l141 447h-363l-256 -314q-117 -141 -116 -194q0 -23 17 -36t40 -13h57q14 0 13 -21l-7 -43 q-4 -16 -22 -16q-6 0 -39 1t-86 3t-109 2q-80 0 -142 -2l-95 -3q-33 -1 -37 -1q-18 0 -16 20zM592 705h319l166 503q6 18 -2 22.5t-18 -7.5z" />
<glyph unicode="&#xc7;" horiz-adv-x="1376" d="M145 442q0 238 69 400t218 325q215 236 553 236q160 6 270 -68q68 -47 93 -47q41 0 53 43q6 18 18 15l43 -9q12 -4 6 -20l-108 -434q-6 -16 -23 -13l-45 4q-16 0 -12 21q10 106 -12.5 197.5t-91 156t-175.5 64.5q-100 0 -183 -54.5t-169 -179.5q-197 -289 -196 -643 q0 -184 88 -275t182 -91q322 0 494 356q4 12 20 8l45 -12q12 -4 10 -19l-145 -438q-6 -12 -23 -10l-43 10q-10 4 -6 17q6 31 6 34q0 29 -30 29q-33 0 -80 -22q-84 -41 -246 -52l-84 -121q88 -20 125 -51.5t37 -83.5q0 -76 -112.5 -133t-252.5 -57q-39 0 -39 31q0 33 25 32 q63 2 117.5 29t54.5 88q0 29 -27.5 53.5t-70.5 36.5l131 178q-223 14 -353.5 140t-130.5 329z" />
<glyph unicode="&#xc8;" horiz-adv-x="1382" d="M-31 14l6 43q6 16 17 17h55q104 0 139 110l312 973q23 74 -7 107.5t-77 33.5h-72q-14 0 -8 17l12 49q4 14 25 14q4 0 37 -1l101 -3q69 -2 165 -2q174 0 321.5 2t229.5 3t94 1q23 0 30 -7t13 -32l65 -280q2 -10 -8 -17l-26 -14q-12 -6 -29 10l-227 246q-12 14 -37 14h-273 l-172 -530h160q66 0 122 33t116 135q10 16 20 14l39 -12q14 -4 10 -14q-80 -184 -108 -408q-2 -14 -19 -14l-39 2q-10 0 -12 20q-10 92 -64.5 131t-158.5 39h-86l-197 -620h393q55 0 112.5 25.5t117 81t89.5 87t83 94.5q12 14 24 9l27 -19q10 -6 4 -26l-104 -297 q-8 -23 -16.5 -29t-28.5 -6q-10 0 -55.5 1t-132.5 2t-158 1q-92 0 -284 1t-269 1q-53 0 -117 -1t-76 -1q-16 0 -29.5 -1t-20.5 -2t-11 -1q-23 0 -17 20zM674 1706q-6 45 24.5 78t65.5 33q47 0 90 -48l227 -243q10 -6 4 -17l-14 -20q-4 -4 -14 0l-318 145q-59 27 -65 72z" />
<glyph unicode="&#xc9;" horiz-adv-x="1382" d="M-31 14l6 43q6 16 17 17h55q104 0 139 110l312 973q23 74 -7 107.5t-77 33.5h-72q-14 0 -8 17l12 49q4 14 25 14q4 0 37 -1l101 -3q69 -2 165 -2q174 0 321.5 2t229.5 3t94 1q23 0 30 -7t13 -32l65 -280q2 -10 -8 -17l-26 -14q-12 -6 -29 10l-227 246q-12 14 -37 14h-273 l-172 -530h160q66 0 122 33t116 135q10 16 20 14l39 -12q14 -4 10 -14q-80 -184 -108 -408q-2 -14 -19 -14l-39 2q-10 0 -12 20q-10 92 -64.5 131t-158.5 39h-86l-197 -620h393q55 0 112.5 25.5t117 81t89.5 87t83 94.5q12 14 24 9l27 -19q10 -6 4 -26l-104 -297 q-8 -23 -16.5 -29t-28.5 -6q-10 0 -55.5 1t-132.5 2t-158 1q-92 0 -284 1t-269 1q-53 0 -117 -1t-76 -1q-16 0 -29.5 -1t-20.5 -2t-11 -1q-23 0 -17 20zM862 1513q-4 10 6 21l271 233q41 37 82 37q47 0 74.5 -37.5t16 -84t-62.5 -64.5l-358 -127q-12 -6 -17 2z" />
<glyph unicode="&#xca;" horiz-adv-x="1382" d="M-31 14l6 43q6 16 17 17h55q104 0 139 110l312 973q23 74 -7 107.5t-77 33.5h-72q-14 0 -8 17l12 49q4 14 25 14q4 0 37 -1l101 -3q69 -2 165 -2q174 0 321.5 2t229.5 3t94 1q23 0 30 -7t13 -32l65 -280q2 -10 -8 -17l-26 -14q-12 -6 -29 10l-227 246q-12 14 -37 14h-273 l-172 -530h160q66 0 122 33t116 135q10 16 20 14l39 -12q14 -4 10 -14q-80 -184 -108 -408q-2 -14 -19 -14l-39 2q-10 0 -12 20q-10 92 -64.5 131t-158.5 39h-86l-197 -620h393q55 0 112.5 25.5t117 81t89.5 87t83 94.5q12 14 24 9l27 -19q10 -6 4 -26l-104 -297 q-8 -23 -16.5 -29t-28.5 -6q-10 0 -55.5 1t-132.5 2t-158 1q-92 0 -284 1t-269 1q-53 0 -117 -1t-76 -1q-16 0 -29.5 -1t-20.5 -2t-11 -1q-23 0 -17 20zM717 1522q-2 4 4 14l301 301q20 25 35 -4l162 -303q6 -10 -5 -17l-20 -18q-8 -6 -23 4l-163 109l-258 -117 q-10 -4 -19 6z" />
<glyph unicode="&#xcb;" horiz-adv-x="1382" d="M-31 14l6 43q6 16 17 17h55q104 0 139 110l312 973q23 74 -7 107.5t-77 33.5h-72q-14 0 -8 17l12 49q4 14 25 14q4 0 37 -1l101 -3q69 -2 165 -2q174 0 321.5 2t229.5 3t94 1q23 0 30 -7t13 -32l65 -280q2 -10 -8 -17l-26 -14q-12 -6 -29 10l-227 246q-12 14 -37 14h-273 l-172 -530h160q66 0 122 33t116 135q10 16 20 14l39 -12q14 -4 10 -14q-80 -184 -108 -408q-2 -14 -19 -14l-39 2q-10 0 -12 20q-10 92 -64.5 131t-158.5 39h-86l-197 -620h393q55 0 112.5 25.5t117 81t89.5 87t83 94.5q12 14 24 9l27 -19q10 -6 4 -26l-104 -297 q-8 -23 -16.5 -29t-28.5 -6q-10 0 -55.5 1t-132.5 2t-158 1q-92 0 -284 1t-269 1q-53 0 -117 -1t-76 -1q-16 0 -29.5 -1t-20.5 -2t-11 -1q-23 0 -17 20zM653 1645q0 35 27 66.5t92 31.5q45 0 76 -28.5t31 -78.5q0 -47 -31 -75.5t-76 -28.5q-119 0 -119 113zM1059 1645 q0 35 26.5 66.5t92.5 31.5q45 0 75.5 -28.5t30.5 -78.5q0 -47 -30.5 -75.5t-75.5 -28.5q-119 0 -119 113z" />
<glyph unicode="&#xcc;" horiz-adv-x="788" d="M-41 14l10 47q2 12 17 13h67q45 0 71 6t43 29.5t23.5 42t20.5 69.5l256 942q14 76 1 105.5t-44 29.5h-94q-12 0 -16.5 3.5t-2.5 13.5l11 51q2 12 26 12q6 0 48 -1t115 -3t155 -2q78 0 144.5 2t104 3t46.5 1q29 0 22 -24l-10 -39q-4 -16 -23 -17h-63q-47 0 -83 -29.5 t-59 -111.5l-256 -944q-37 -139 80 -139h76q16 0 12 -21l-6 -43q-2 -16 -24 -16q-4 0 -45 1l-122 3q-81 2 -181 2q-80 0 -151 -2t-109.5 -3t-43.5 -1q-18 0 -16 20zM377 1706q-6 45 24.5 78t65.5 33q47 0 90 -48l227 -243q10 -6 4 -17l-14 -20q-4 -4 -14 0l-318 145 q-59 27 -65 72z" />
<glyph unicode="&#xcd;" horiz-adv-x="788" d="M-41 14l10 47q2 12 17 13h67q45 0 71 6t43 29.5t23.5 42t20.5 69.5l256 942q14 76 1 105.5t-44 29.5h-94q-12 0 -16.5 3.5t-2.5 13.5l11 51q2 12 26 12q6 0 48 -1t115 -3t155 -2q78 0 144.5 2t104 3t46.5 1q29 0 22 -24l-10 -39q-4 -16 -23 -17h-63q-47 0 -83 -29.5 t-59 -111.5l-256 -944q-37 -139 80 -139h76q16 0 12 -21l-6 -43q-2 -16 -24 -16q-4 0 -45 1l-122 3q-81 2 -181 2q-80 0 -151 -2t-109.5 -3t-43.5 -1q-18 0 -16 20zM647 1513q-4 10 6 21l271 233q41 37 82 37q47 0 74.5 -37.5t16 -84t-62.5 -64.5l-358 -127q-12 -6 -17 2z " />
<glyph unicode="&#xce;" horiz-adv-x="788" d="M-41 14l10 47q2 12 17 13h67q45 0 71 6t43 29.5t23.5 42t20.5 69.5l256 942q14 76 1 105.5t-44 29.5h-94q-12 0 -16.5 3.5t-2.5 13.5l11 51q2 12 26 12q6 0 48 -1t115 -3t155 -2q78 0 144.5 2t104 3t46.5 1q29 0 22 -24l-10 -39q-4 -16 -23 -17h-63q-47 0 -83 -29.5 t-59 -111.5l-256 -944q-37 -139 80 -139h76q16 0 12 -21l-6 -43q-2 -16 -24 -16q-4 0 -45 1l-122 3q-81 2 -181 2q-80 0 -151 -2t-109.5 -3t-43.5 -1q-18 0 -16 20zM410 1522q-2 4 4 14l301 301q20 25 35 -4l161 -303q6 -10 -4 -17l-20 -18q-8 -6 -23 4l-164 109l-258 -117 q-10 -4 -18 6z" />
<glyph unicode="&#xcf;" horiz-adv-x="788" d="M-41 14l10 47q2 12 17 13h67q45 0 71 6t43 29.5t23.5 42t20.5 69.5l256 942q14 76 1 105.5t-44 29.5h-94q-12 0 -16.5 3.5t-2.5 13.5l11 51q2 12 26 12q6 0 48 -1t115 -3t155 -2q78 0 144.5 2t104 3t46.5 1q29 0 22 -24l-10 -39q-4 -16 -23 -17h-63q-47 0 -83 -29.5 t-59 -111.5l-256 -944q-37 -139 80 -139h76q16 0 12 -21l-6 -43q-2 -16 -24 -16q-4 0 -45 1l-122 3q-81 2 -181 2q-80 0 -151 -2t-109.5 -3t-43.5 -1q-18 0 -16 20zM377 1645q0 35 26.5 66.5t92.5 31.5q45 0 75.5 -28.5t30.5 -78.5q0 -47 -30.5 -75.5t-75.5 -28.5 q-119 0 -119 113zM782 1645q0 35 27 66.5t92 31.5q45 0 76 -28.5t31 -78.5q0 -47 -31 -75.5t-76 -28.5q-119 0 -119 113z" />
<glyph unicode="&#xd0;" horiz-adv-x="1624" d="M-6 14l12 45q4 14 21 15h24q123 0 162 157l106 433h-190q-12 0 -8 16l16 55q2 14 19 15h184l109 440q14 53 -10.5 77.5t-63.5 24.5h-76q-14 0 -19.5 3t-0.5 14l12 49q4 14 33 14q61 0 149 6q18 0 111.5 3t130.5 3q256 0 440 -40.5t303 -157.5q154 -156 154 -371 q0 -141 -40 -262t-104.5 -202t-121 -130t-113.5 -82q-258 -147 -670 -145h-24q-27 0 -118 3t-120 3q-94 0 -162.5 -2t-97.5 -3t-31 -1q-18 0 -16 20zM481 131q0 -25 31 -41t63 -16q287 0 494 164q106 84 181 242.5t75 328.5q0 213 -135 342q-100 96 -176 121q-94 31 -191 31 q-61 0 -67 -23l-131 -530h309q8 0 12 -3.5t2 -9.5l-18 -61q-6 -12 -23 -12h-303l-108 -447q-15 -66 -15 -86z" />
<glyph unicode="&#xd1;" horiz-adv-x="1515" d="M-80 14l6 43q4 16 19 17h35q70 0 116.5 66.5t98.5 224.5l223 700q31 86 20.5 138t-32 73.5t-50.5 21.5h-82q-20 0 -14 21l10 43q6 16 23 16q6 0 44 -1l117 -3q79 -2 183 -2q53 0 78 -53l471 -913q8 -14 17 -10.5t16 22.5l167 547q104 334 -2 333h-55q-14 0 -18 3.5 t-2 13.5l6 49q2 14 20 14q6 0 36 -1t82 -3t115.5 -2t118 3t58.5 3q25 0 20 -24l-8 -39q-2 -16 -18 -17h-51q-70 0 -146 -213l-364 -1032q-18 -53 -43 -53q-35 0 -58 41l-538 1024q-8 14 -17.5 12t-13.5 -16l-154 -537q-113 -395 -47 -442q10 -8 29 -8h82q18 0 16 -21l-6 -43 q-6 -16 -25 -16q-6 0 -38.5 1t-87 3t-111.5 2q-61 0 -113.5 -2t-82 -3t-36.5 -1q-16 0 -14 20zM793 1567q23 70 74 129t96 59q49 0 178 -31q68 -16 123 -16q70 0 104 59q8 14 16 9l31 -17q12 -6 -4 -43q-29 -63 -74 -110t-94 -47q-66 0 -156 22q-92 25 -145 25 q-27 0 -57.5 -20.5t-46.5 -49.5q-8 -12 -17 -6l-26 16q-6 7 -2 21z" />
<glyph unicode="&#xd2;" horiz-adv-x="1564" d="M201 569q0 219 90 407.5t268 307.5t412 119q260 0 415.5 -152.5t155.5 -439.5q0 -336 -222 -589t-558 -253q-236 0 -375 129q-186 172 -186 471zM453 414q0 -164 73.5 -253t208.5 -89q133 0 256 134t199 350t76 445q0 143 -64.5 221t-177.5 78q-86 0 -163 -44t-126 -111 q-123 -150 -202.5 -350.5t-79.5 -380.5zM745.5 1706q-6.5 45 24.5 78t66 33q47 0 90 -48l227 -243q10 -6 4 -17l-14 -20q-4 -4 -15 0l-317 145q-59 27 -65.5 72z" />
<glyph unicode="&#xd3;" horiz-adv-x="1564" d="M201 569q0 219 90 407.5t268 307.5t412 119q260 0 415.5 -152.5t155.5 -439.5q0 -336 -222 -589t-558 -253q-236 0 -375 129q-186 172 -186 471zM453 414q0 -164 73.5 -253t208.5 -89q133 0 256 134t199 350t76 445q0 143 -64.5 221t-177.5 78q-86 0 -163 -44t-126 -111 q-123 -150 -202.5 -350.5t-79.5 -380.5zM975 1513q-4 10 6 21l270 233q41 37 82 37q47 0 75 -37.5t16.5 -84t-62.5 -64.5l-358 -127q-12 -6 -17 2z" />
<glyph unicode="&#xd4;" horiz-adv-x="1564" d="M201 569q0 219 90 407.5t268 307.5t412 119q260 0 415.5 -152.5t155.5 -439.5q0 -336 -222 -589t-558 -253q-236 0 -375 129q-186 172 -186 471zM453 414q0 -164 73.5 -253t208.5 -89q133 0 256 134t199 350t76 445q0 143 -64.5 221t-177.5 78q-86 0 -163 -44t-126 -111 q-123 -150 -202.5 -350.5t-79.5 -380.5zM776 1522q-2 4 4 14l301 301q20 25 35 -4l162 -303q6 -10 -4 -17l-21 -18q-8 -6 -22 4l-164 109l-258 -117q-10 -4 -18 6z" />
<glyph unicode="&#xd5;" horiz-adv-x="1564" d="M201 569q0 219 90 407.5t268 307.5t412 119q260 0 415.5 -152.5t155.5 -439.5q0 -336 -222 -589t-558 -253q-236 0 -375 129q-186 172 -186 471zM453 414q0 -164 73.5 -253t208.5 -89q133 0 256 134t199 350t76 445q0 143 -64.5 221t-177.5 78q-86 0 -163 -44t-126 -111 q-123 -150 -202.5 -350.5t-79.5 -380.5zM705 1567q23 70 73.5 129t95.5 59q49 0 179 -31q68 -16 123 -16q70 0 104 59q6 14 16 9l31 -17q12 -6 -4 -43q-29 -63 -74 -110t-94 -47q-66 0 -156 22q-92 25 -145 25q-27 0 -57.5 -20.5t-46.5 -49.5q-8 -12 -17 -6l-26 16 q-6 7 -2 21z" />
<glyph unicode="&#xd6;" horiz-adv-x="1564" d="M201 569q0 219 90 407.5t268 307.5t412 119q260 0 415.5 -152.5t155.5 -439.5q0 -336 -222 -589t-558 -253q-236 0 -375 129q-186 172 -186 471zM453 414q0 -164 73.5 -253t208.5 -89q133 0 256 134t199 350t76 445q0 143 -64.5 221t-177.5 78q-86 0 -163 -44t-126 -111 q-123 -150 -202.5 -350.5t-79.5 -380.5zM723 1645q0 35 26.5 66.5t92.5 31.5q45 0 75.5 -28.5t30.5 -78.5q0 -47 -30.5 -75.5t-75.5 -28.5q-119 0 -119 113zM1128 1645q0 35 27 66.5t92 31.5q45 0 76 -28.5t31 -78.5q0 -47 -31 -75.5t-76 -28.5q-119 0 -119 113z" />
<glyph unicode="&#xd7;" d="M129 197l295 286l-295 293l107 107l301 -303l297 303l102 -107l-295 -287l295 -290l-102 -107l-306 299l-297 -299z" />
<glyph unicode="&#xd8;" horiz-adv-x="1564" d="M201 528q0 176 49 332t142 278t246 193.5t343 71.5q203 0 322 -84l88 113q8 8 14 2l53 -39q8 -6 0 -19l-90 -110q82 -70 128 -190t46 -232q0 -225 -92 -424t-271.5 -325t-406.5 -126q-219 0 -342 92l-92 -120q-10 -10 -16 -4l-50 40q-8 8 0 21l93 119q-80 82 -122 197.5 t-42 213.5zM451 422q0 -90 24 -176l737 958q-23 41 -72.5 68.5t-105.5 27.5q-174 0 -305 -157q-115 -141 -196.5 -349t-81.5 -372zM516 172q78 -100 209 -100q135 0 262 135t203 348t76 436q0 100 -17 127z" />
<glyph unicode="&#xd9;" horiz-adv-x="1519" d="M231 344q0 106 43 256l175 571q39 127 -52 127h-73q-16 0 -15 17l10 47q2 16 27 16q4 0 39 -1l107 -3q72 -2 167 -2q74 0 133 2l89 3q31 1 34 1q20 0 19 -24l-8 -39q-4 -16 -21 -17h-51q-82 0 -117 -112l-168 -547q-59 -217 -59 -289q0 -82 28.5 -139t72.5 -82t76 -33 t61 -8q166 0 268 82q78 61 131 156.5t96 259.5l125 471q25 86 30 139t-9.5 77.5t-49.5 24.5h-53q-23 0 -18 17l6 43q6 20 26 20l76 -2q74 -4 144 -4q51 0 93 2l64 3q23 1 29 1q20 0 18 -24l-6 -39q-4 -16 -22 -17h-23q-82 0 -153 -223l-156 -504q-45 -145 -94 -244.5 t-126 -186.5t-191.5 -129t-268.5 -42q-201 0 -327 96.5t-126 278.5zM764 1706q-6 45 24.5 78t65.5 33q47 0 90 -48l227 -243q10 -6 5 -17l-15 -20q-4 -4 -14 0l-318 145q-59 27 -65 72z" />
<glyph unicode="&#xda;" horiz-adv-x="1519" d="M231 344q0 106 43 256l175 571q39 127 -52 127h-73q-16 0 -15 17l10 47q2 16 27 16q4 0 39 -1l107 -3q72 -2 167 -2q74 0 133 2l89 3q31 1 34 1q20 0 19 -24l-8 -39q-4 -16 -21 -17h-51q-82 0 -117 -112l-168 -547q-59 -217 -59 -289q0 -82 28.5 -139t72.5 -82t76 -33 t61 -8q166 0 268 82q78 61 131 156.5t96 259.5l125 471q25 86 30 139t-9.5 77.5t-49.5 24.5h-53q-23 0 -18 17l6 43q6 20 26 20l76 -2q74 -4 144 -4q51 0 93 2l64 3q23 1 29 1q20 0 18 -24l-6 -39q-4 -16 -22 -17h-23q-82 0 -153 -223l-156 -504q-45 -145 -94 -244.5 t-126 -186.5t-191.5 -129t-268.5 -42q-201 0 -327 96.5t-126 278.5zM1055 1513q-4 10 6 21l270 233q41 37 82 37q47 0 75 -37.5t16.5 -84t-62.5 -64.5l-359 -127q-12 -6 -16 2z" />
<glyph unicode="&#xdb;" horiz-adv-x="1519" d="M231 344q0 106 43 256l175 571q39 127 -52 127h-73q-16 0 -15 17l10 47q2 16 27 16q4 0 39 -1l107 -3q72 -2 167 -2q74 0 133 2l89 3q31 1 34 1q20 0 19 -24l-8 -39q-4 -16 -21 -17h-51q-82 0 -117 -112l-168 -547q-59 -217 -59 -289q0 -82 28.5 -139t72.5 -82t76 -33 t61 -8q166 0 268 82q78 61 131 156.5t96 259.5l125 471q25 86 30 139t-9.5 77.5t-49.5 24.5h-53q-23 0 -18 17l6 43q6 20 26 20l76 -2q74 -4 144 -4q51 0 93 2l64 3q23 1 29 1q20 0 18 -24l-6 -39q-4 -16 -22 -17h-23q-82 0 -153 -223l-156 -504q-45 -145 -94 -244.5 t-126 -186.5t-191.5 -129t-268.5 -42q-201 0 -327 96.5t-126 278.5zM856 1522q-2 4 4 14l301 301q20 25 35 -4l162 -303q6 -10 -4 -17l-21 -18q-8 -6 -22 4l-164 109l-258 -117q-10 -4 -19 6z" />
<glyph unicode="&#xdc;" horiz-adv-x="1519" d="M231 344q0 106 43 256l175 571q39 127 -52 127h-73q-16 0 -15 17l10 47q2 16 27 16q4 0 39 -1l107 -3q72 -2 167 -2q74 0 133 2l89 3q31 1 34 1q20 0 19 -24l-8 -39q-4 -16 -21 -17h-51q-82 0 -117 -112l-168 -547q-59 -217 -59 -289q0 -82 28.5 -139t72.5 -82t76 -33 t61 -8q166 0 268 82q78 61 131 156.5t96 259.5l125 471q25 86 30 139t-9.5 77.5t-49.5 24.5h-53q-23 0 -18 17l6 43q6 20 26 20l76 -2q74 -4 144 -4q51 0 93 2l64 3q23 1 29 1q20 0 18 -24l-6 -39q-4 -16 -22 -17h-23q-82 0 -153 -223l-156 -504q-45 -145 -94 -244.5 t-126 -186.5t-191.5 -129t-268.5 -42q-201 0 -327 96.5t-126 278.5zM823 1645q0 35 27 66.5t92 31.5q45 0 76 -28.5t31 -78.5q0 -47 -31 -75.5t-76 -28.5q-119 0 -119 113zM1229 1645q0 35 26.5 66.5t92.5 31.5q45 0 75.5 -28.5t30.5 -78.5q0 -47 -30.5 -75.5t-75.5 -28.5 q-119 0 -119 113z" />
<glyph unicode="&#xdd;" horiz-adv-x="1187" d="M90 1315l8 47q2 16 21 16q6 0 36 -1l90 -3q60 -2 144 -2t150 2l99 3q34 1 40 1q10 0 15 -4t3 -12l-4 -47q-2 -16 -18 -17h-53q-72 0 -46 -94l142 -532q8 -29 21.5 -30t27.5 26q0 2 149.5 242.5t159.5 275.5q37 113 -61 112h-49q-18 0 -15 21l4 47q2 12 25 12q4 0 79 -3 t142 -3q59 0 109.5 2t79 3t36.5 1q23 0 21 -20l-6 -45q-2 -14 -17 -15h-39q-88 0 -145 -88q-6 -8 -210 -296.5t-220 -319.5q-29 -53 -57 -178l-52 -228q-16 -76 -0.5 -95t74.5 -19h33q18 0 14 -17l-6 -47q-4 -16 -22 -16q-8 0 -41 1l-95 3q-61 2 -141 2q-84 0 -148 -2 l-96 -3q-31 -1 -34 -1q-18 0 -17 16l8 47q0 16 19 17h39q111 0 133 104l67 303q12 55 -2 105l-209 635q-27 78 -124 77h-48q-16 1 -14 17zM807 1513q-4 10 6 21l270 233q41 37 82 37q47 0 75 -37.5t16.5 -84t-62.5 -64.5l-358 -127q-12 -6 -17 2z" />
<glyph unicode="&#xde;" horiz-adv-x="1290" d="M16 10l7 51q2 12 14 13h47q49 0 75.5 42t47.5 117l246 928q35 137 -47 137h-76q-14 0 -13 15l17 53q2 12 16 12q2 0 48 -1t119 -3t140 -2q72 0 166 4l95 2q12 0 17 -4t3 -12l-8 -47q-4 -16 -23 -17h-41q-43 0 -77.5 -32.5t-51.5 -89.5l-18 -62q27 -2 76 -2 q158 0 252 -21.5t165 -78.5q66 -53 91.5 -111.5t25.5 -159.5q0 -180 -154.5 -312t-459.5 -132q-131 0 -205 14l-23 -88q-16 -59 -3.5 -104t51.5 -45h77q16 0 17 -17l-8 -51q-2 -12 -23 -12q-6 0 -39 1l-97 3q-65 2 -147 2q-80 0 -143 -2l-97 -3q-34 -1 -40 -1q-10 0 -15.5 4 t-3.5 12zM535 401q49 -29 161 -28q160 0 254 118.5t94 262.5q0 82 -29.5 142t-73.5 89t-83 41t-72 12q-59 0 -86 -4z" />
<glyph unicode="&#xdf;" horiz-adv-x="1038" d="M-467 -477q0 109 98 108q49 0 76 -32.5t33 -79.5q4 -35 55 -35q127 0 254 541l160 692q18 86 32.5 136t43 127t71.5 146.5t103 137.5q43 49 141 97t191 48q270 0 270 -213q0 -86 -54.5 -158.5t-152.5 -154.5q-2 -2 -16.5 -14.5t-17.5 -14.5t-15 -13.5t-14.5 -15.5 t-11.5 -14t-12 -16.5t-9 -17.5t-7 -19t-3.5 -20.5t-2.5 -24.5q0 -78 97 -195q102 -125 102 -246q0 -125 -91 -208.5t-243 -83.5q-102 0 -156.5 33.5t-54.5 88.5q0 39 23.5 69t56.5 30q80 0 103 -90q16 -61 59 -62q102 0 104 144q0 20 -11 49.5t-22.5 48t-33 50.5t-23.5 36 l-16 25q-12 19 -15 25.5t-13.5 24t-13.5 24.5l-10 22.5t-10 24.5l-8 23q-4 13 -5 26.5t-1 25.5q0 53 30 110.5t54.5 85t69.5 72.5q127 129 127 318q0 51 -31 94t-78 43q-49 0 -91 -45t-74.5 -132t-51 -158t-43.5 -179q-117 -537 -233 -873q-31 -88 -79 -177t-113.5 -174 t-150.5 -138t-173 -53q-90 0 -141.5 37t-51.5 94z" />
<glyph unicode="&#xe0;" horiz-adv-x="974" d="M31 139q0 133 73.5 303t204.5 301t269 131q102 0 159 -71l33 59q14 23 37 23h145q23 0 17 -25q-137 -395 -146 -426q-2 -10 -23.5 -80.5t-39 -135t-17.5 -79.5q0 -25 25 -24q10 0 22.5 9t28 25.5t26.5 30t23.5 30.5t14.5 19q12 14 20 9l25 -17q8 -4 -2 -26 q-16 -33 -50 -76t-111 -91t-163 -48q-84 0 -84 65q0 33 80 266l-18 11q-49 -76 -75 -111t-83 -101.5t-119.5 -98t-130.5 -31.5q-45 0 -93 50t-48 109zM274 207q0 -61 50 -62q37 0 143 138.5t141 214.5q47 106 47 196q0 33 -29.5 62.5t-60.5 29.5q-76 0 -153 -139 q-138 -243 -138 -440zM387.5 1235q20.5 59 79.5 59q49 0 82 -49l158 -244q8 -8 0 -16l-15 -16q-8 -10 -18 0l-244 161q-63 46 -42.5 105z" />
<glyph unicode="&#xe1;" horiz-adv-x="974" d="M31 139q0 133 73.5 303t204.5 301t269 131q102 0 159 -71l33 59q14 23 37 23h145q23 0 17 -25q-137 -395 -146 -426q-2 -10 -23.5 -80.5t-39 -135t-17.5 -79.5q0 -25 25 -24q10 0 22.5 9t28 25.5t26.5 30t23.5 30.5t14.5 19q12 14 20 9l25 -17q8 -4 -2 -26 q-16 -33 -50 -76t-111 -91t-163 -48q-84 0 -84 65q0 33 80 266l-18 11q-49 -76 -75 -111t-83 -101.5t-119.5 -98t-130.5 -31.5q-45 0 -93 50t-48 109zM274 207q0 -61 50 -62q37 0 143 138.5t141 214.5q47 106 47 196q0 33 -29.5 62.5t-60.5 29.5q-76 0 -153 -139 q-138 -243 -138 -440zM631 989q-4 4 8 17l227 211q55 49 99 49q37 0 59.5 -33t12 -74t-57.5 -61l-317 -131q-12 -6 -17 2z" />
<glyph unicode="&#xe2;" horiz-adv-x="974" d="M31 139q0 133 73.5 303t204.5 301t269 131q102 0 159 -71l33 59q14 23 37 23h145q23 0 17 -25q-137 -395 -146 -426q-2 -10 -23.5 -80.5t-39 -135t-17.5 -79.5q0 -25 25 -24q10 0 22.5 9t28 25.5t26.5 30t23.5 30.5t14.5 19q12 14 20 9l25 -17q8 -4 -2 -26 q-16 -33 -50 -76t-111 -91t-163 -48q-84 0 -84 65q0 33 80 266l-18 11q-49 -76 -75 -111t-83 -101.5t-119.5 -98t-130.5 -31.5q-45 0 -93 50t-48 109zM274 207q0 -61 50 -62q37 0 143 138.5t141 214.5q47 106 47 196q0 33 -29.5 62.5t-60.5 29.5q-76 0 -153 -139 q-138 -243 -138 -440zM467 1001q-6 6 2 19l276 315q4 6 10.5 7t11.5 -3t7 -12l111 -323q4 -10 -4 -17l-17 -8q-10 -6 -16 0l-135 127l-219 -125q-10 -4 -15 2z" />
<glyph unicode="&#xe3;" horiz-adv-x="974" d="M31 139q0 133 73.5 303t204.5 301t269 131q102 0 159 -71l33 59q14 23 37 23h145q23 0 17 -25q-137 -395 -146 -426q-2 -10 -23.5 -80.5t-39 -135t-17.5 -79.5q0 -25 25 -24q10 0 22.5 9t28 25.5t26.5 30t23.5 30.5t14.5 19q12 14 20 9l25 -17q8 -4 -2 -26 q-16 -33 -50 -76t-111 -91t-163 -48q-84 0 -84 65q0 33 80 266l-18 11q-49 -76 -75 -111t-83 -101.5t-119.5 -98t-130.5 -31.5q-45 0 -93 50t-48 109zM274 207q0 -61 50 -62q37 0 143 138.5t141 214.5q47 106 47 196q0 33 -29.5 62.5t-60.5 29.5q-76 0 -153 -139 q-138 -243 -138 -440zM420 1026q27 66 77 122t97 56q35 0 121 -24q63 -20 116 -21q59 0 93 58q6 12 16 8l31 -17q10 -6 -4 -37q-29 -59 -75 -105t-85 -46q-37 0 -135 24q-92 23 -103 21q-27 0 -58.5 -20.5t-47.5 -49.5q-8 -10 -14 -6l-27 17q-8 8 -2 20z" />
<glyph unicode="&#xe4;" horiz-adv-x="974" d="M31 139q0 133 73.5 303t204.5 301t269 131q102 0 159 -71l33 59q14 23 37 23h145q23 0 17 -25q-137 -395 -146 -426q-2 -10 -23.5 -80.5t-39 -135t-17.5 -79.5q0 -25 25 -24q10 0 22.5 9t28 25.5t26.5 30t23.5 30.5t14.5 19q12 14 20 9l25 -17q8 -4 -2 -26 q-16 -33 -50 -76t-111 -91t-163 -48q-84 0 -84 65q0 33 80 266l-18 11q-49 -76 -75 -111t-83 -101.5t-119.5 -98t-130.5 -31.5q-45 0 -93 50t-48 109zM274 207q0 -61 50 -62q37 0 143 138.5t141 214.5q47 106 47 196q0 33 -29.5 62.5t-60.5 29.5q-76 0 -153 -139 q-138 -243 -138 -440zM399 1184q0 33 26 62.5t83 29.5q41 0 69.5 -26.5t28.5 -73.5q0 -43 -27.5 -69t-70.5 -26t-76 24t-33 79zM760 1184q0 33 25.5 62.5t82.5 29.5q41 0 70 -26.5t29 -73.5q0 -43 -28 -69t-71 -26t-75.5 24t-32.5 79z" />
<glyph unicode="&#xe5;" horiz-adv-x="974" d="M31 139q0 133 73.5 303t204.5 301t269 131q102 0 159 -71l33 59q14 23 37 23h145q23 0 17 -25q-137 -395 -146 -426q-2 -10 -23.5 -80.5t-39 -135t-17.5 -79.5q0 -25 25 -24q10 0 22.5 9t28 25.5t26.5 30t23.5 30.5t14.5 19q12 14 20 9l25 -17q8 -4 -2 -26 q-16 -33 -50 -76t-111 -91t-163 -48q-84 0 -84 65q0 33 80 266l-18 11q-49 -76 -75 -111t-83 -101.5t-119.5 -98t-130.5 -31.5q-45 0 -93 50t-48 109zM274 207q0 -61 50 -62q37 0 143 138.5t141 214.5q47 106 47 196q0 33 -29.5 62.5t-60.5 29.5q-76 0 -153 -139 q-138 -243 -138 -440zM430 1147q0 80 72.5 126t156.5 46q86 0 153 -41t67 -123q0 -74 -73 -117t-161 -43q-84 0 -149.5 41t-65.5 111zM567 1153q0 -47 25.5 -72.5t60.5 -25.5q37 0 62.5 26.5t25.5 75.5q0 53 -28.5 76.5t-63.5 23.5q-31 0 -56.5 -26.5t-25.5 -77.5z" />
<glyph unicode="&#xe6;" horiz-adv-x="1214" d="M6 106q0 106 63.5 224.5t159 214.5t205 169.5t203.5 104.5q170 55 383 55q203 0 203 -153q0 -131 -166 -254q-109 -80 -330 -178v-68q0 -29 30.5 -66.5t88.5 -37.5q125 0 203 104q6 10 18 2l31 -22q12 -8 4 -23q-35 -66 -148.5 -132t-257.5 -66q-84 0 -142 49t-75 129 q-205 -178 -354 -178q-45 0 -82 40.5t-37 85.5zM248 213q0 -74 55 -74q49 0 170 92q2 119 63.5 248t139.5 209q33 37 33 53q0 20 -25 21q-39 0 -118 -55.5t-152 -147.5q-86 -104 -126 -201.5t-40 -144.5zM737 367q135 80 201 157q70 82 70 176q0 41 -16.5 60.5t-53.5 17.5 q-53 0 -117 -136t-84 -275z" />
<glyph unicode="&#xe7;" horiz-adv-x="677" d="M-31 -414q0 33 37 33q57 0 104.5 29.5t47.5 66.5q0 63 -78 97l137 172q-68 16 -117 73.5t-49 149.5q0 94 39 208.5t104.5 217t164 172t204.5 69.5q80 0 120 -37.5t40 -74.5q0 -45 -29.5 -82t-62.5 -37q-66 0 -82 53q-18 66 -66 66q-27 0 -47 -32t-51 -105 q-33 -84 -45 -119t-24.5 -104.5t-12.5 -155.5q0 -129 78 -129q43 0 94 24.5t74 48.5q10 14 18 9l25 -21q12 -8 2 -22q-31 -45 -109.5 -101.5t-177.5 -70.5l-100 -129q145 -43 145 -127q0 -59 -64.5 -102.5t-139 -60t-140.5 -16.5q-39 0 -39 37z" />
<glyph unicode="&#xe8;" horiz-adv-x="798" d="M51 209q0 129 60.5 272.5t187.5 249.5q168 143 342 143q80 0 120 -38.5t40 -102.5q0 -160 -187 -266q-137 -78 -301 -90q-16 -37 -16 -129q0 -55 29.5 -94t81.5 -39q123 0 221 106q8 12 16 6l33 -22q10 -8 4 -21q-35 -68 -145.5 -136t-245.5 -68q-106 0 -173 61.5 t-67 167.5zM330 453q31 -2 88 20.5t98 61.5q27 25 46.5 71.5t19.5 95.5q0 70 -56 70q-53 0 -111 -103t-85 -216zM380.5 1235q20.5 59 80.5 59q49 0 82 -49l157 -244q8 -8 0 -16l-14 -16q-8 -10 -18 0l-244 161q-64 46 -43.5 105z" />
<glyph unicode="&#xe9;" horiz-adv-x="798" d="M51 209q0 129 60.5 272.5t187.5 249.5q168 143 342 143q80 0 120 -38.5t40 -102.5q0 -160 -187 -266q-137 -78 -301 -90q-16 -37 -16 -129q0 -55 29.5 -94t81.5 -39q123 0 221 106q8 12 16 6l33 -22q10 -8 4 -21q-35 -68 -145.5 -136t-245.5 -68q-106 0 -173 61.5 t-67 167.5zM330 453q31 -2 88 20.5t98 61.5q27 25 46.5 71.5t19.5 95.5q0 70 -56 70q-53 0 -111 -103t-85 -216zM481 989q-4 4 8 17l228 211q55 49 98 49q37 0 59.5 -33t12.5 -74t-58 -61l-317 -131q-12 -6 -16 2z" />
<glyph unicode="&#xea;" horiz-adv-x="798" d="M51 209q0 129 60.5 272.5t187.5 249.5q168 143 342 143q80 0 120 -38.5t40 -102.5q0 -160 -187 -266q-137 -78 -301 -90q-16 -37 -16 -129q0 -55 29.5 -94t81.5 -39q123 0 221 106q8 12 16 6l33 -22q10 -8 4 -21q-35 -68 -145.5 -136t-245.5 -68q-106 0 -173 61.5 t-67 167.5zM330 453q31 -2 88 20.5t98 61.5q27 25 46.5 71.5t19.5 95.5q0 70 -56 70q-53 0 -111 -103t-85 -216zM387 1001q-6 6 2 19l277 315q4 6 10 7t11 -3t7 -12l111 -323q4 -10 -4 -17l-17 -8q-10 -6 -16 0l-135 127l-219 -125q-10 -4 -15 2z" />
<glyph unicode="&#xeb;" horiz-adv-x="798" d="M51 209q0 129 60.5 272.5t187.5 249.5q168 143 342 143q80 0 120 -38.5t40 -102.5q0 -160 -187 -266q-137 -78 -301 -90q-16 -37 -16 -129q0 -55 29.5 -94t81.5 -39q123 0 221 106q8 12 16 6l33 -22q10 -8 4 -21q-35 -68 -145.5 -136t-245.5 -68q-106 0 -173 61.5 t-67 167.5zM330 453q31 -2 88 20.5t98 61.5q27 25 46.5 71.5t19.5 95.5q0 70 -56 70q-53 0 -111 -103t-85 -216zM352 1184q0 33 25.5 62.5t83.5 29.5q41 0 69.5 -26.5t28.5 -73.5q0 -43 -27.5 -69t-70.5 -26t-76 24t-33 79zM713 1184q0 33 25.5 62.5t82.5 29.5 q41 0 70 -26.5t29 -73.5q0 -43 -28 -69t-71 -26t-75.5 24t-32.5 79z" />
<glyph unicode="&#xec;" horiz-adv-x="606" d="M66 623l8 10q6 10 15 21l25 29q15 17 31.5 33.5t39 36t45 37t50 33t55 26.5t59.5 18t65 7q90 0 90 -73q0 -35 -66 -226l-110 -313q-33 -100 -33 -125q0 -29 26.5 -28.5t81 51.5t70.5 76q8 10 17 2l24 -25q8 -8 2 -20q-8 -12 -20.5 -29t-49 -52.5t-78.5 -62t-109.5 -48 t-141.5 -21.5q-80 0 -80 61q0 31 121 381l55 162l14 47l12.5 42t4.5 25q0 27 -27 27q-20 0 -71.5 -50t-77.5 -87q-12 -12 -23 -2l-18 18q-12 13 -6 19zM256 1235q20 59 80 59q49 0 82 -49l157 -244q8 -8 0 -16l-14 -16q-8 -10 -18 0l-244 161q-63 46 -43 105z" />
<glyph unicode="&#xed;" horiz-adv-x="606" d="M66 623l8 10q6 10 15 21l25 29q15 17 31.5 33.5t39 36t45 37t50 33t55 26.5t59.5 18t65 7q90 0 90 -73q0 -35 -66 -226l-110 -313q-33 -100 -33 -125q0 -29 26.5 -28.5t81 51.5t70.5 76q8 10 17 2l24 -25q8 -8 2 -20q-8 -12 -20.5 -29t-49 -52.5t-78.5 -62t-109.5 -48 t-141.5 -21.5q-80 0 -80 61q0 31 121 381l55 162l14 47l12.5 42t4.5 25q0 27 -27 27q-20 0 -71.5 -50t-77.5 -87q-12 -12 -23 -2l-18 18q-12 13 -6 19zM395 989q-4 4 8 17l228 211q55 49 98 49q37 0 59.5 -33t12.5 -74t-58 -61l-317 -131q-12 -6 -16 2z" />
<glyph unicode="&#xee;" horiz-adv-x="606" d="M66 623l8 10q6 10 15 21l25 29q15 17 31.5 33.5t39 36t45 37t50 33t55 26.5t59.5 18t65 7q90 0 90 -73q0 -35 -66 -226l-110 -313q-33 -100 -33 -125q0 -29 26.5 -28.5t81 51.5t70.5 76q8 10 17 2l24 -25q8 -8 2 -20q-8 -12 -20.5 -29t-49 -52.5t-78.5 -62t-109.5 -48 t-141.5 -21.5q-80 0 -80 61q0 31 121 381l55 162l14 47l12.5 42t4.5 25q0 27 -27 27q-20 0 -71.5 -50t-77.5 -87q-12 -12 -23 -2l-18 18q-12 13 -6 19zM260 1001q-6 6 2 19l277 315q4 6 10 7t11 -3t7 -12l111 -323q4 -10 -4 -17l-17 -8q-10 -6 -16 0l-135 127l-219 -125 q-10 -4 -15 2z" />
<glyph unicode="&#xef;" horiz-adv-x="606" d="M66 623l8 10q6 10 15 21l25 29q15 17 31.5 33.5t39 36t45 37t50 33t55 26.5t59.5 18t65 7q90 0 90 -73q0 -35 -66 -226l-110 -313q-33 -94 -33 -125q0 -29 26.5 -28.5t81 51.5t70.5 76q8 10 17 2l24 -25q8 -8 2 -20q-8 -12 -20.5 -29t-49 -52.5t-78.5 -62t-109.5 -48 t-141.5 -21.5q-80 0 -80 61q0 31 121 381l55 162q31 88 31 114.5t-27 26.5q-20 0 -71.5 -50t-77.5 -87q-12 -12 -23 -2l-18 18q-12 13 -6 19zM195 1184q0 33 25.5 62.5t82.5 29.5q41 0 69.5 -26.5t28.5 -73.5q0 -43 -27.5 -69t-70.5 -26t-75.5 24t-32.5 79zM555 1184 q0 33 25.5 62.5t83.5 29.5q41 0 69.5 -26.5t28.5 -73.5q0 -43 -27.5 -69t-70.5 -26t-76 24t-33 79z" />
<glyph unicode="&#xf0;" horiz-adv-x="890" d="M51 291q0 94 26.5 191.5t79 187.5t146.5 147t215 57q74 0 119 -32l12 4q4 123 -43 237l-231 -77q-14 -6 -21 8l-18 49q-8 14 8 20l236 78q-37 90 -136 230q-4 6 7 16l34 29q10 6 19 -2q55 -39 121.5 -105.5t99.5 -120.5l180 60q10 2 17 -8l18 -48q6 -16 -8 -20l-164 -55 q98 -182 98 -441q0 -109 -30.5 -227.5t-90 -231t-164 -185t-237.5 -72.5q-53 0 -99 12t-93.5 44t-74 97.5t-26.5 157.5zM246 166q0 -111 94 -109q53 2 127 124t125 269.5t51 225.5q0 111 -82 110q-117 0 -235 -323q-80 -223 -80 -297z" />
<glyph unicode="&#xf1;" horiz-adv-x="1087" d="M51 23l142 393q92 252 92 289q0 33 -27 32q-20 0 -64 -39t-73 -71q-10 -12 -21 -2l-20 22q-10 8 -2 21q156 207 373 206q41 0 61 -24.5t20 -54.5q0 -41 -98 -267l19 -14q125 182 209 258q117 102 225 102q61 0 96 -44t35 -93q0 -51 -119 -383q-66 -186 -65 -209 q0 -35 26 -34q16 0 54 31.5t59 56.5q8 12 20 0l19 -17q12 -10 2 -24q-23 -29 -57.5 -63t-116.5 -74.5t-170 -40.5q-82 0 -82 77q0 37 106 340q82 236 82 269q0 45 -41 45q-35 0 -127 -97.5t-153 -199.5q-90 -143 -101 -172l-80 -230q-6 -12 -30 -12h-174q-27 0 -19 23z M477 1026q27 66 77 122t97 56q35 0 121 -24q63 -20 117 -21q59 0 92 58q6 12 16 8l31 -17q10 -6 -4 -37q-29 -59 -75 -105t-85 -46q-37 0 -135 24q-92 23 -102 21q-27 0 -58.5 -20.5t-48.5 -49.5q-8 -10 -14 -6l-27 17q-8 8 -2 20z" />
<glyph unicode="&#xf2;" horiz-adv-x="858" d="M63 293q0 287 162 463q113 119 293 118q47 0 92 -12t92.5 -43t76 -94t28.5 -152q0 -111 -42 -245.5t-130 -229.5q-111 -119 -301 -118q-104 0 -187.5 77.5t-83.5 235.5zM233 188q0 -35 19.5 -62.5t52.5 -27.5q104 0 211 203q49 92 87 202.5t38 166.5q0 88 -76 88 q-57 0 -107 -54.5t-122 -183.5q-103 -180 -103 -332zM350.5 1235q20.5 59 79.5 59q49 0 82 -49l158 -244q8 -8 0 -16l-15 -16q-8 -10 -18 0l-244 161q-63 46 -42.5 105z" />
<glyph unicode="&#xf3;" horiz-adv-x="858" d="M63 293q0 287 162 463q113 119 293 118q47 0 92 -12t92.5 -43t76 -94t28.5 -152q0 -111 -42 -245.5t-130 -229.5q-111 -119 -301 -118q-104 0 -187.5 77.5t-83.5 235.5zM233 188q0 -35 19.5 -62.5t52.5 -27.5q104 0 211 203q49 92 87 202.5t38 166.5q0 88 -76 88 q-57 0 -107 -54.5t-122 -183.5q-103 -180 -103 -332zM451 989q-4 4 8 17l227 211q55 49 98 49q37 0 59.5 -33t12.5 -74t-57 -61l-318 -131q-12 -6 -16 2z" />
<glyph unicode="&#xf4;" horiz-adv-x="858" d="M63 293q0 287 162 463q113 119 293 118q47 0 92 -12t92.5 -43t76 -94t28.5 -152q0 -111 -42 -245.5t-130 -229.5q-111 -119 -301 -118q-104 0 -187.5 77.5t-83.5 235.5zM233 188q0 -35 19.5 -62.5t52.5 -27.5q104 0 211 203q49 92 87 202.5t38 166.5q0 88 -76 88 q-57 0 -107 -54.5t-122 -183.5q-103 -180 -103 -332zM356 1001q-6 6 2 19l277 315q4 6 10 7t11.5 -3t7.5 -12l110 -323q4 -10 -4 -17l-16 -8q-10 -6 -17 0l-135 127l-219 -125q-10 -4 -14 2z" />
<glyph unicode="&#xf5;" horiz-adv-x="858" d="M63 293q0 287 162 463q113 119 293 118q47 0 92 -12t92.5 -43t76 -94t28.5 -152q0 -111 -42 -245.5t-130 -229.5q-111 -119 -301 -118q-104 0 -187.5 77.5t-83.5 235.5zM233 188q0 -35 19.5 -62.5t52.5 -27.5q104 0 211 203q49 92 87 202.5t38 166.5q0 88 -76 88 q-57 0 -107 -54.5t-122 -183.5q-103 -180 -103 -332zM291 1026q27 66 77 122t97 56q35 0 121 -24q63 -20 116 -21q59 0 93 58q6 12 16 8l31 -17q10 -6 -4 -37q-29 -59 -75 -105t-85 -46q-37 0 -135 24q-92 23 -103 21q-27 0 -58.5 -20.5t-47.5 -49.5q-8 -10 -15 -6l-26 17 q-8 8 -2 20z" />
<glyph unicode="&#xf6;" horiz-adv-x="858" d="M63 293q0 287 162 463q113 119 293 118q47 0 92 -12t92.5 -43t76 -94t28.5 -152q0 -111 -42 -245.5t-130 -229.5q-111 -119 -301 -118q-104 0 -187.5 77.5t-83.5 235.5zM233 188q0 -35 19.5 -62.5t52.5 -27.5q104 0 211 203q49 92 87 202.5t38 166.5q0 88 -76 88 q-57 0 -107 -54.5t-122 -183.5q-103 -180 -103 -332zM301 1184q0 33 25.5 62.5t83.5 29.5q41 0 69.5 -26.5t28.5 -73.5q0 -43 -27.5 -69t-70.5 -26t-76 24t-33 79zM662 1184q0 33 25.5 62.5t82.5 29.5q41 0 69.5 -26.5t28.5 -73.5q0 -43 -27.5 -69t-70.5 -26t-75.5 24 t-32.5 79z" />
<glyph unicode="&#xf7;" d="M127 434v148h813v-148h-813zM412 188q0 53 35.5 85t87 32t86 -31.5t34.5 -85t-33.5 -83t-87 -29.5t-88 30.5t-34.5 81.5zM412 825q0 49 34.5 82t88.5 33q51 0 85.5 -33t34.5 -82t-33.5 -81.5t-86.5 -32.5q-57 0 -90 32.5t-33 81.5z" />
<glyph unicode="&#xf8;" horiz-adv-x="858" d="M63 293q0 295 158 461q115 121 299 120q109 0 176 -57l47 60q8 8 15 4l41 -31q8 -8 0 -19l-47 -59q53 -84 53 -199q0 -109 -42 -241.5t-128 -227.5q-115 -125 -309 -124q-88 0 -160 59l-49 -62q-6 -10 -19 -2l-32 27q-8 10 0 18l53 66q-56 84 -56 207zM219 201l4 -4 l402 532q-20 27 -72 27q-55 0 -98 -43t-127 -176q-109 -174 -109 -336zM246 131q37 -33 61 -33q102 0 223 197q43 68 82 177.5t39 166.5l-8 12z" />
<glyph unicode="&#xf9;" horiz-adv-x="1067" d="M78 659q-6 10 0 19q27 35 47 56.5t66.5 60.5t106.5 59t130 20q49 0 78 -27.5t29 -68.5q0 -80 -111 -350q-86 -209 -86 -254q0 -16 11 -26.5t24 -10.5q25 0 127 119t145 188q51 86 88 199l66 197q4 14 30 14h183q31 0 20 -27l-143 -438q-74 -223 -74 -252q2 -25 27 -24 q27 0 110 108q10 12 21 2l22 -16q6 -4 0 -23q-35 -68 -122 -136t-211 -68q-86 0 -87 69q0 47 101 311l-23 13q-43 -68 -76.5 -114t-99 -122t-137.5 -116.5t-143 -40.5q-39 0 -75 35.5t-32 64.5q0 43 16.5 100.5t34.5 103.5l72 177q82 201 82 252q0 35 -35 35q-20 0 -62 -32 t-77 -75q-10 -14 -23 -2zM413.5 1235q20.5 59 80.5 59q49 0 81 -49l158 -244q8 -8 0 -16l-14 -16q-8 -10 -19 0l-243 161q-64 46 -43.5 105z" />
<glyph unicode="&#xfa;" horiz-adv-x="1067" d="M78 659q-6 10 0 19q27 35 47 56.5t66.5 60.5t106.5 59t130 20q49 0 78 -27.5t29 -68.5q0 -80 -111 -350q-86 -209 -86 -254q0 -16 11 -26.5t24 -10.5q25 0 127 119t145 188q51 86 88 199l66 197q4 14 30 14h183q31 0 20 -27l-143 -438q-74 -223 -74 -252q2 -25 27 -24 q27 0 110 108q10 12 21 2l22 -16q6 -4 0 -23q-35 -68 -122 -136t-211 -68q-86 0 -87 69q0 47 101 311l-23 13q-43 -68 -76.5 -114t-99 -122t-137.5 -116.5t-143 -40.5q-39 0 -75 35.5t-32 64.5q0 43 16.5 100.5t34.5 103.5l72 177q82 201 82 252q0 35 -35 35q-20 0 -62 -32 t-77 -75q-10 -14 -23 -2zM637 989q-4 4 8 17l227 211q55 49 99 49q37 0 59.5 -33t12 -74t-57.5 -61l-317 -131q-12 -6 -17 2z" />
<glyph unicode="&#xfb;" horiz-adv-x="1067" d="M78 659q-6 10 0 19q27 35 47 56.5t66.5 60.5t106.5 59t130 20q49 0 78 -27.5t29 -68.5q0 -80 -111 -350q-86 -209 -86 -254q0 -16 11 -26.5t24 -10.5q25 0 127 119t145 188q51 86 88 199l66 197q4 14 30 14h183q31 0 20 -27l-143 -438q-74 -223 -74 -252q2 -25 27 -24 q27 0 110 108q10 12 21 2l22 -16q6 -4 0 -23q-35 -68 -122 -136t-211 -68q-86 0 -87 69q0 47 101 311l-23 13q-43 -68 -76.5 -114t-99 -122t-137.5 -116.5t-143 -40.5q-39 0 -75 35.5t-32 64.5q0 43 16.5 100.5t34.5 103.5l72 177q82 201 82 252q0 35 -35 35q-20 0 -62 -32 t-77 -75q-10 -14 -23 -2zM502 1001q-6 6 2 19l276 315q4 6 10.5 7t11.5 -3t7 -12l111 -323q4 -10 -5 -17l-16 -8q-10 -6 -16 0l-135 127l-220 -125q-10 -4 -14 2z" />
<glyph unicode="&#xfc;" horiz-adv-x="1067" d="M78 659q-6 10 0 19q27 35 47 56.5t66.5 60.5t106.5 59t130 20q49 0 78 -27.5t29 -68.5q0 -80 -111 -350q-86 -209 -86 -254q0 -16 11 -26.5t24 -10.5q25 0 127 119t145 188q51 86 88 199l66 197q4 14 30 14h183q31 0 20 -27l-143 -438q-74 -223 -74 -252q2 -25 27 -24 q27 0 110 108q10 12 21 2l22 -16q6 -4 0 -23q-35 -68 -122 -136t-211 -68q-86 0 -87 69q0 47 101 311l-23 13q-43 -68 -76.5 -114t-99 -122t-137.5 -116.5t-143 -40.5q-39 0 -75 35.5t-32 64.5q0 43 16.5 100.5t34.5 103.5l72 177q82 201 82 252q0 35 -35 35q-20 0 -62 -32 t-77 -75q-10 -14 -23 -2zM426 1184q0 33 25.5 62.5t83.5 29.5q41 0 69.5 -26.5t28.5 -73.5q0 -43 -27.5 -69t-70.5 -26t-76 24t-33 79zM786 1184q0 33 26 62.5t83 29.5q41 0 69.5 -26.5t28.5 -73.5q0 -43 -27.5 -69t-70.5 -26t-76 24t-33 79z" />
<glyph unicode="&#xfd;" horiz-adv-x="911" d="M-209 -500q0 53 32 89t70.5 36t71.5 -37q33 -33 66 -32q39 0 82 28q102 63 190 199q37 53 25 162q-2 8 -37 332.5t-45 384.5q-10 49 -37 49q-29 0 -57.5 -46.5t-38.5 -91.5q-6 -14 -19 -10l-31 6q-10 4 -4 29q4 16 11.5 38.5t32 68t54 80t82 62t113.5 27.5q63 0 96 -53 t41 -190q25 -365 11 -553l24 -2q27 47 87.5 184t74.5 203q16 82 16 137q0 29 -18 89.5t-18 86.5q0 39 28.5 68.5t81.5 29.5q68 0 95.5 -39.5t27.5 -117.5q0 -53 -45 -174t-104 -234q-96 -180 -243 -396t-267 -337q-178 -184 -310 -184q-68 0 -103.5 30.5t-35.5 77.5z M549 989q-4 4 8 17l227 211q55 49 99 49q37 0 59.5 -33t12 -74t-57.5 -61l-317 -131q-12 -6 -17 2z" />
<glyph unicode="&#xfe;" horiz-adv-x="1017" d="M-289 -598l10 41q4 16 17 16h26q63 0 102.5 37t70.5 125l382 1092q-66 -16 -133 -65.5t-96 -90.5q-10 -14 -22 -4l-21 18q-10 8 0 23q127 174 315 240l154 454q12 41 35 47l231 64q16 4 23 4q10 0 10 -10q0 -6 -4 -19l-209 -504q18 4 53 4q158 0 239 -75.5t81 -212.5 q0 -248 -232 -426q-70 -53 -198.5 -100.5t-257.5 -59.5l-131 -401q-25 -80 -9.5 -110t80.5 -30h47q12 0 13 -16l-15 -45q-4 -12 -22 -12q-6 0 -35 2t-87 3t-134 1q-84 0 -145.5 -1t-90 -3t-32.5 -2q-17 0 -15 16zM315 76q150 23 287 154.5t137 312.5q0 117 -40 172t-81 55 q-37 0 -51 -4z" />
<glyph unicode="&#xff;" horiz-adv-x="911" d="M-209 -500q0 53 32 89t70.5 36t71.5 -37q33 -33 66 -32q39 0 82 28q102 63 190 199q37 53 25 162q-2 8 -37 332.5t-45 384.5q-10 49 -37 49q-29 0 -57.5 -46.5t-38.5 -91.5q-6 -14 -19 -10l-31 6q-10 4 -4 29q4 16 11.5 38.5t32 68t54 80t82 62t113.5 27.5q63 0 96 -53 t41 -190q25 -365 11 -553l24 -2q27 47 87.5 184t74.5 203q16 82 16 137q0 29 -18 89.5t-18 86.5q0 39 28.5 68.5t81.5 29.5q68 0 95.5 -39.5t27.5 -117.5q0 -53 -45 -174t-104 -234q-96 -180 -243 -396t-267 -337q-178 -184 -310 -184q-68 0 -103.5 30.5t-35.5 77.5z M338 1184q0 33 25.5 62.5t82.5 29.5q41 0 70 -26.5t29 -73.5q0 -43 -28 -69t-71 -26t-75.5 24t-32.5 79zM698 1184q0 33 26 62.5t83 29.5q41 0 69.5 -26.5t28.5 -73.5q0 -43 -27.5 -69t-70.5 -26t-76 24t-33 79z" />
<glyph unicode="&#x152;" horiz-adv-x="2252" d="M201 528q0 176 56 332t163.5 278t279.5 193.5t385 71.5q70 0 246 -14q147 -16 213 -17q242 0 451 4q63 0 126.5 1t67.5 1q23 0 30 -7t13 -32l66 -280q2 -10 -8 -17l-27 -14q-12 -6 -29 10l-227 246q-12 14 -37 14h-272l-172 -530h160q66 0 122 33t115 135q10 16 21 14 l38 -12q14 -4 11 -14q-80 -184 -109 -408q-2 -14 -18 -14l-39 2q-10 0 -12 20q-10 92 -64.5 131t-159.5 39h-86l-196 -620h393q55 0 112.5 25.5t117 81t89 87t82.5 94.5q12 14 25 9l26 -19q10 -6 5 -26l-105 -297q-8 -23 -16 -29t-29 -6q-10 0 -55 1t-132 2t-157 1 q-92 0 -278.5 1t-258.5 1q-45 0 -184 -14q-119 -16 -170 -17q-268 0 -401 133q-172 172 -172 426zM432 393q0 -147 86 -237t209 -90q291 0 367 245l254 815q25 78 -38 124t-163 46q-219 0 -381 -170q-137 -143 -235.5 -353t-98.5 -380z" />
<glyph unicode="&#x153;" horiz-adv-x="1249" d="M63 305q0 123 44.5 245t125.5 206q117 119 291 118q190 0 230 -165q152 166 346 165q80 0 118.5 -39.5t38.5 -101.5q0 -158 -174 -260q-137 -80 -311 -92q-18 -49 -18 -135q0 -51 29.5 -90t80.5 -39q141 0 221 104q6 10 19 2l24 -18q10 -8 5 -21q-35 -72 -134.5 -138 t-228.5 -66q-70 0 -124 33.5t-77 86.5q-45 -53 -117.5 -86.5t-146.5 -33.5q-96 0 -169 80.5t-73 244.5zM225 190q0 -37 23.5 -63.5t52.5 -24.5q57 0 98 42t95 135q152 276 151 393q0 31 -21.5 55.5t-66.5 24.5q-90 0 -209 -211q-123 -216 -123 -351zM791 453q113 -4 194 90 q66 74 66 157q0 31 -15.5 52.5t-38.5 21.5q-68 0 -124.5 -106t-81.5 -215z" />
<glyph unicode="&#x178;" horiz-adv-x="1187" d="M90 1315l8 47q2 16 21 16q6 0 36 -1l90 -3q60 -2 144 -2t150 2l99 3q34 1 40 1q10 0 15 -4t3 -12l-4 -47q-2 -16 -18 -17h-53q-72 0 -46 -94l142 -532q8 -29 21.5 -30t27.5 26q0 2 149.5 242.5t159.5 275.5q37 113 -61 112h-49q-18 0 -15 21l4 47q2 12 25 12q4 0 79 -3 t142 -3q59 0 109.5 2t79 3t36.5 1q23 0 21 -20l-6 -45q-2 -14 -17 -15h-39q-88 0 -145 -88q-6 -8 -210 -296.5t-220 -319.5q-29 -53 -57 -178l-52 -228q-16 -76 -0.5 -95t74.5 -19h33q18 0 14 -17l-6 -47q-4 -16 -22 -16q-8 0 -41 1l-95 3q-61 2 -141 2q-84 0 -148 -2 l-96 -3q-31 -1 -34 -1q-18 0 -17 16l8 47q0 16 19 17h39q111 0 133 104l67 303q12 55 -2 105l-209 635q-27 78 -124 77h-48q-16 1 -14 17zM555 1645q0 35 26.5 66.5t92.5 31.5q45 0 75.5 -28.5t30.5 -78.5q0 -47 -30.5 -75.5t-75.5 -28.5q-119 0 -119 113zM961 1645 q0 35 26.5 66.5t91.5 31.5q45 0 76 -28.5t31 -78.5q0 -47 -31 -75.5t-76 -28.5q-118 0 -118 113z" />
<glyph unicode="&#x2c6;" horiz-adv-x="552" d="M223 1001q-6 6 2 19l277 315q4 6 10 7t11 -3t7 -12l111 -323q4 -10 -4 -17l-16 -8q-10 -6 -17 0l-135 127l-219 -125q-10 -4 -14 2z" />
<glyph unicode="&#x2dc;" horiz-adv-x="655" d="M229 1026q27 66 77 122t97 56q35 0 121 -24q63 -20 117 -21q59 0 92 58q6 12 17 8l30 -17q10 -6 -4 -37q-29 -59 -75 -105t-85 -46q-37 0 -135 24q-92 23 -102 21q-27 0 -58.5 -20.5t-48.5 -49.5q-8 -10 -14 -6l-27 17q-8 8 -2 20z" />
<glyph unicode="&#x2013;" d="M27 430v148h1024v-148h-1024z" />
<glyph unicode="&#x2014;" horiz-adv-x="2048" d="M27 430v148h2048v-148h-2048z" />
<glyph unicode="&#x2018;" horiz-adv-x="358" d="M233 1104q0 63 29 117.5t70 86t89 54t82 32t52 9.5t23 -8q2 -4 2 -9q4 -29 -23 -34q-51 -12 -109.5 -59.5t-58.5 -102.5q0 -49 49 -98l8 -7q8 -6 13.5 -11t13.5 -14t13.5 -17.5t9.5 -21.5t4 -26q0 -47 -24.5 -74.5t-69.5 -27.5q-80 0 -126.5 70.5t-46.5 140.5z" />
<glyph unicode="&#x2019;" horiz-adv-x="358" d="M199 911q-4 27 22 33q53 14 111.5 60.5t58.5 101.5q0 33 -11 52.5t-40 45.5l-12 13q-14 10 -22.5 19t-16.5 24.5t-8 31.5q0 51 24.5 81t69.5 30q84 0 129 -68.5t45 -140.5q0 -80 -43 -143.5t-102.5 -95t-107.5 -47t-73 -15.5h-4q-18 0 -20 18z" />
<glyph unicode="&#x201a;" horiz-adv-x="358" d="M-72 -215q-4 27 23 33q53 14 111.5 60t58.5 102q0 33 -11.5 52t-39.5 46l-13 12q-14 10 -22 19.5t-16.5 25t-8.5 31.5q0 51 24.5 80.5t69.5 29.5q84 0 129.5 -68.5t45.5 -139.5q0 -80 -43 -143.5t-102.5 -95.5t-108 -47t-72.5 -15h-4q-19 0 -21 18z" />
<glyph unicode="&#x201c;" horiz-adv-x="696" d="M233 1104q0 80 43 142.5t102.5 94t109 47t73.5 15.5q18 0 23 -8q2 -4 2 -9q4 -29 -23 -34q-51 -12 -110.5 -59.5t-59.5 -102.5q0 -49 49 -98l9 -7q8 -6 13 -11l13 -13q8 -8 13.5 -16.5t9.5 -19.5t4 -21q0 -51 -24.5 -81t-69.5 -30q-84 0 -130.5 68.5t-46.5 142.5z M567 1104q0 80 43 142.5t102.5 94t108.5 47t74 15.5q20 0 23 -17q4 -29 -21 -34q-53 -12 -112.5 -59.5t-59.5 -102.5q0 -49 49 -98l10 -9l18 -14q7 -6 16 -16.5t14.5 -23.5t5.5 -25q0 -51 -26 -81t-71 -30q-84 0 -129 68.5t-45 142.5z" />
<glyph unicode="&#x201d;" horiz-adv-x="696" d="M199 911q-4 27 22 33q55 16 112.5 59.5t57.5 102.5q0 49 -49 100q-61 41 -61 86q0 51 24.5 81t69.5 30q84 0 129 -68.5t45 -140.5q0 -80 -43 -143.5t-102.5 -95t-107.5 -47t-73 -15.5h-4q-18 0 -20 18zM535 911q-4 27 22 33q53 14 112.5 60.5t59.5 101.5q0 49 -51 100 q-61 41 -62 86q0 51 26 81t71 30q84 0 129 -68.5t45 -140.5q0 -66 -30 -120t-71 -86t-89 -54.5t-83.5 -31.5t-54.5 -9h-4q-16 0 -20 18z" />
<glyph unicode="&#x201e;" horiz-adv-x="696" d="M-61 -215q-4 27 22 33q55 16 112.5 59t57.5 103q0 49 -49 100q-61 41 -62 86q0 51 25 80.5t70 29.5q84 0 129 -68.5t45 -139.5q0 -80 -43 -143.5t-102.5 -95.5t-107.5 -47t-73 -15h-4q-18 0 -20 18zM270 -215q-4 27 23 33q53 14 112.5 60t59.5 102q0 49 -51 100 q-61 41 -62 86q0 51 25.5 80.5t71.5 29.5q84 0 129 -68.5t45 -139.5q0 -66 -30 -120t-71 -86t-89 -54.5t-84 -31.5t-54 -9h-4q-17 0 -21 18z" />
<glyph unicode="&#x2022;" horiz-adv-x="716" d="M174 645q0 123 78 200t194 77q125 0 196 -65.5t71 -190.5q0 -123 -81 -194t-200 -71q-104 0 -181 64.5t-77 179.5z" />
<glyph unicode="&#x2026;" horiz-adv-x="2048" d="M131 119q0 49 36 91t99 42q74 0 110 -44t36 -95q0 -55 -40 -94t-104 -39q-59 0 -98 40t-39 99zM813 119q0 49 36 91t99 42q74 0 110 -44t36 -95q0 -55 -40 -94t-104 -39q-59 0 -98 40t-39 99zM1495 119q0 49 36 91t99 42q74 0 110 -44t36 -95q0 -55 -40 -94t-104 -39 q-59 0 -98 40t-39 99z" />
<glyph unicode="&#x2039;" horiz-adv-x="501" d="M111 473q0 4 10 14l317 297q8 8 12.5 8.5t10.5 -6.5l22 -22q8 -8 9 -14q0 -8 -9 -19l-147 -248l88 -252q6 -14 6 -16q0 -6 -8 -14l-25 -23q-4 -4 -8 -4q-8 0 -14 8l-256 279q-8 8 -8 12z" />
<glyph unicode="&#x203a;" horiz-adv-x="501" d="M68 219q0 2 10 19l145 247l-86 252q-2 4 -4 7.5t-3 5.5t-1 4q0 6 8 14l25 23q4 4 8 4q8 0 14 -9l256 -278q8 -8 8.5 -12t-10.5 -15l-317 -297q-8 -8 -12.5 -8t-10.5 6l-22 23q-8 8 -8 14z" />
<glyph unicode="&#x20ac;" d="M51 489l31 52q8 12 33 12h90q6 43 18 90q14 57 23 80h-123q-8 0 -13.5 4t-0.5 8l30 51q8 12 33 13h96q39 111 133 248q88 129 213 201.5t226 72.5q94 0 172 -59q16 -12 31.5 -27.5l23.5 -23t12 -7.5q16 0 25 23l6 16q6 16 16 12l27 -8q14 -4 8 -20l-94 -338 q-2 -14 -16 -12l-35 4q-12 0 -6 20q29 143 -7 232.5t-141 89.5q-74 0 -145.5 -76t-114.5 -165t-72 -183h390q10 0 14 -4t2 -9l-25 -41q-14 -23 -37 -22h-366q-14 -41 -21 -82q-14 -59 -18 -88h309q8 0 14.5 -4t2.5 -8l-29 -52q-8 -12 -39 -12h-270q-53 -410 147 -409 q86 0 151.5 55t139.5 225q8 14 16 12l33 -12q12 -6 8 -16l-114 -348q-4 -14 -10.5 -21.5t-16.5 -5.5l-23 6q-12 4 -10 19q6 27 3 40t-19 13q-6 0 -77 -33t-136 -33q-193 0 -288 155t-66 353h-132q-20 0 -12 12z" />
<glyph unicode="&#x2122;" horiz-adv-x="1781" d="M184 1221l86 170q8 18 23 18q6 0 14 -8l10 -8q12 -12 43 -15q184 -6 228 -6q55 0 246 6q29 0 49 13l18 12q6 6 19 6q10 0 8 -18q-12 -63 -23 -183q0 -14 -8 -14l-27 -4q-12 0 -14 12q-12 76 -61 98q-33 14 -138 15l-96 -361q-47 -162 -47 -188q0 -39 31 -39h43 q12 0 10 -10l-12 -41q-4 -10 -17 -10q-2 0 -29.5 1t-68.5 2t-76 1q-29 0 -68.5 -1t-69.5 -2t-34 -1q-14 0 -8 16l8 35q2 10 13 10h51q33 0 49 33q16 35 49 168l104 387q-115 0 -139 -10q-74 -33 -117 -97q-14 -23 -22 -18l-23 12q-12 5 -4 19zM778 678l6 37q2 12 15 12h20 q53 0 80 55q27 61 102 328l41 156q14 53 -38 53h-31q-10 0 -6 12l10 39q2 12 14 12q4 0 49 -2t72 -2q43 0 91 2t57 2q29 0 32 -20l45 -432h15l297 434q12 16 41 16h105h72q26 0 42 1t24 1h11q6 0 4 -14l-9 -35q-6 -14 -12 -14h-20q-51 0 -60 -35l-127 -506q-14 -51 25 -51 h35q10 0 8 -10l-8 -39q-4 -10 -17 -10h-28q-27 0 -65 1t-66 1q-31 0 -71 -1t-70 -1h-31q-12 0 -9 10l9 37q2 12 12 12h39q41 0 65 43q8 16 18.5 55t25 99.5t18.5 81.5l82 303h-9l-421 -602q-16 -25 -35 -25t-19 18l-73 613h-13l-71 -275q-2 -8 -29 -103t-35 -136 q-16 -72 41 -72h23q10 0 6 -12l-10 -37q-4 -10 -15 -10q-2 0 -48 1t-71 1q-18 0 -72.5 -2t-56.5 -2q-8 2 -6 12z" />
<glyph unicode="&#xe000;" horiz-adv-x="875" d="M0 875h875v-875h-875v875z" />
<glyph unicode="&#xfb01;" horiz-adv-x="1120" d="M-434 -481q0 113 96 112q49 0 78 -33.5t31 -78.5q0 -35 55 -35q131 0 258 539l166 700h-182q-14 0 -13 20l8 43q6 27 25 27h182l22 73l21 72q6 20 24.5 65.5t38 76t51.5 75t75 89.5q45 49 143 97t195 48q131 0 192.5 -43t61.5 -106q-18 -123 -123 -123q-47 0 -85 27.5 t-42 64.5q-10 96 -56 96q-55 0 -100 -44t-80 -136t-52 -154.5t-44 -177.5h168q141 0 213 23q14 4 38.5 12t42 11t36.5 3q23 0 36 -20.5t13 -46.5q0 -35 -64 -220l-110 -313q-33 -100 -33 -125q0 -29 26.5 -28.5t81 51.5t70.5 76q8 10 17 2l24 -25q8 -8 2 -20 q-8 -12 -20.5 -29t-49 -52.5t-79.5 -62t-113 -48t-145 -21.5q-35 0 -52.5 18t-17.5 43q0 41 119 369l55 161q23 66 23 99q0 23 -21.5 38t-44.5 15h-233q-14 -51 -53.5 -207l-81.5 -307.5t-80 -265.5q-31 -90 -80 -181.5t-116 -176.5t-153 -139t-174 -54q-90 0 -140 35 t-50 92z" />
<glyph unicode="&#xfb02;" horiz-adv-x="1093" d="M-434 -477q0 51 25.5 83t70.5 32q47 0 76 -38t35 -81q4 -35 43 -35q141 0 268 539l168 700h-184q-14 0 -13 20l8 50q2 20 25 20h182l25 85q18 65 28.5 90.5t35 76.5t58.5 97t85 102q49 53 146 99t216 46q92 0 199.5 -21.5t153.5 -50.5q43 -27 24 -71l-393 -1063 q-31 -88 18 -88t150 100q8 10 18 0l23 -25q6 -10 0 -22q-14 -18 -55 -56t-137.5 -85t-190.5 -47q-33 0 -62.5 29.5t-29.5 56.5q0 39 57 194l164 463h-309q-129 -526 -218 -780q-31 -90 -80 -181.5t-114.5 -177.5t-151.5 -139t-174 -53q-90 0 -140 36t-50 95zM510 813h324 l133 352q37 92 -13 125q-55 35 -137 35q-53 0 -99 -36t-75 -81t-57.5 -127t-42 -132t-33.5 -136z" />
<glyph unicode="&#xfb03;" horiz-adv-x="1675" d="M-362 -485q0 45 27.5 76.5t72.5 31.5q86 0 104 -104q6 -35 47 -35q55 0 118 139t112 400l133 700h-174q-18 0 -15 18l13 56q4 16 22 16h172l20.5 75.5t25 85t31 74t55 95.5t79.5 98q45 49 141.5 98.5t188.5 49.5q119 0 178.5 -39t65.5 -90v2q45 51 143 99t201 48 q127 0 192.5 -45t65.5 -109q0 -49 -32 -82.5t-77 -33.5q-135 0 -149 127q-6 59 -60 59q-51 0 -94 -46t-76.5 -131t-54 -159t-43.5 -176h172q141 0 213 23q14 4 39 12t40 11t34 3q23 0 36 -20.5t13 -46.5q0 -35 -64 -220l-110 -313q-33 -100 -33 -125q0 -29 26.5 -28.5 t81 51.5t70.5 76q8 10 17 2l24 -25q8 -8 2 -20q-8 -12 -20.5 -29t-49 -52.5t-78.5 -62t-108.5 -48t-140.5 -21.5q-35 0 -52.5 18t-17.5 43q0 41 119 369l55 161q23 66 23 99q0 23 -22.5 38t-49.5 15h-235q-12 -43 -51 -202t-77 -297t-71 -234q-41 -117 -93 -218.5 t-122 -189.5t-159 -139t-187 -51q-92 0 -144.5 45t-54.5 104l-8 4q-109 -154 -272 -153q-80 0 -129 38t-49 85zM150 -377q63 16 101 -15.5t52 -88.5q6 -35 62 -35q86 0 155.5 131t134.5 410l164 698h-334q-23 -135 -80 -384t-90 -353q-75 -226 -165 -363zM502 813h336 q14 39 36.5 110.5t46 127t62.5 112.5q-94 -6 -135 62l-20 30q-5 8 -18 23.5t-28.5 21t-36.5 5.5q-35 0 -64.5 -20.5t-54 -65.5t-41 -83t-35 -110t-25.5 -105z" />
<glyph unicode="&#xfb04;" horiz-adv-x="1658" d="M-362 -485q0 45 27.5 76.5t72.5 31.5q86 0 104 -104q6 -35 47 -35q55 0 118 139t112 400l133 700h-174q-18 0 -15 18l13 56q4 16 22 16h172q6 20 20.5 75.5t25 83t32 76t54 94.5t79.5 99q45 49 141.5 98.5t186.5 49.5q119 0 180.5 -38t73.5 -89q49 53 147.5 100t216.5 47 q88 0 195 -21.5t152 -50.5q43 -27 24 -71l-393 -1063q-31 -88 18.5 -88t149.5 100q8 10 18 0l23 -25q6 -10 0 -22q-12 -18 -54 -56t-134.5 -85t-180.5 -47q-33 0 -62.5 29.5t-29.5 56.5q0 39 57 194l166 463h-321q-12 -43 -51 -202t-77 -297t-71 -234q-88 -254 -229.5 -426 t-331.5 -172q-92 0 -144.5 45t-54.5 104l-8 4q-109 -154 -272 -153q-80 0 -129 38t-49 85zM152 -373q113 25 149 -108q10 -35 64 -35q86 0 155.5 131t134.5 410l166 698h-338q-18 -127 -75.5 -378t-94.5 -359q-73 -224 -161 -359zM500 813h342q4 12 14 50l14 52 q4 14 14.5 46t18.5 51l21 46q12 28 28 52l35 51q-90 -4 -137 62l-14 20l-15 21q-4 6 -13 16t-17.5 14t-19.5 7.5t-26 3.5q-49 0 -90 -45.5t-70.5 -130.5t-47 -151.5t-37.5 -164.5zM1071 813h338l133 352q35 94 -18.5 127t-141.5 33q-45 0 -85 -21.5t-70.5 -66.5t-52 -87 t-43 -112.5t-33 -111.5t-27.5 -113z" />
</font>
</defs>
</svg>
